Inter-UI-RegularItalic.ufo
<glyph name="asterisk" format="2">
  <advance width="1424.0"/>
  <unicode hex="002A"/>
  <guideline x="1080.0" y="1344.0" angle="0.0"/>
  <outline>
    <contour>
      <point x="316.0" y="1032.0" type="line"/>
      <point x="472.0" y="904.0" type="line"/>
      <point x="796.0" y="1264.0" type="line"/>
      <point x="1000.0" y="904.0" type="line"/>
      <point x="1196.0" y="1032.0" type="line"/>
      <point x="1000.0" y="1392.0" type="line"/>
      <point x="1440.0" y="1528.0" type="line"/>
      <point x="1408.0" y="1740.0" type="line"/>
      <point x="960.0" y="1600.0" type="line"/>
      <point x="1036.0" y="2048.0" type="line"/>
      <point x="812.0" y="2048.0" type="line"/>
      <point x="736.0" y="1600.0" type="line"/>
      <point x="336.0" y="1740.0" type="line"/>
      <point x="232.0" y="1528.0" type="line"/>
      <point x="632.0" y="1392.0" type="line"/>
    </contour>
  </outline>
</glyph>
<glyph name="comma" format="2">
  <advance width="776.0"/>
  <unicode hex="002C"/>
  <anchor x="48.0" y="100.0" name="_right"/>
  <outline>
    <contour>
      <point x="464.0" y="256.0" type="line"/>
      <point x="208.0" y="256.0" type="line"/>
      <point x="176.0" y="64.0" type="line"/>
      <point x="152.0" y="-88.0"/>
      <point x="76.0" y="-228.0"/>
      <point x="-20.0" y="-388.0" type="curve"/>
      <point x="176.0" y="-428.0" type="line"/>
      <point x="304.0" y="-272.0"/>
      <point x="400.0" y="-108.0"/>
      <point x="432.0" y="68.0" type="curve"/>
    </contour>
  </outline>
</glyph>
<glyph name="zero" format="2">
  <advance width="1680.0"/>
  <unicode hex="0030"/>
  <outline>
    <contour>
      <point x="1584.0" y="1140.0" type="line" smooth="yes"/>
      <point x="1684.0" y="1728.0"/>
      <point x="1488.0" y="2076.0"/>
      <point x="1060.0" y="2076.0" type="curve" smooth="yes"/>
      <point x="628.0" y="2076.0"/>
      <point x="316.0" y="1728.0"/>
      <point x="216.0" y="1140.0" type="curve" smooth="yes"/>
      <point x="184.0" y="944.0" type="line" smooth="yes"/>
      <point x="84.0" y="332.0"/>
      <point x="280.0" y="-28.0"/>
      <point x="716.0" y="-28.0" type="curve" smooth="yes"/>
      <point x="1140.0" y="-28.0"/>
      <point x="1452.0" y="332.0"/>
      <point x="1552.0" y="944.0" type="curve" smooth="yes"/>
    </contour>
    <contour>
      <point x="1296.0" y="900.0" type="line" smooth="yes"/>
      <point x="1224.0" y="456.0"/>
      <point x="1020.0" y="192.0"/>
      <point x="752.0" y="192.0" type="curve" smooth="yes"/>
      <point x="472.0" y="192.0"/>
      <point x="352.0" y="456.0"/>
      <point x="424.0" y="900.0" type="curve" smooth="yes"/>
      <point x="472.0" y="1184.0" type="line" smooth="yes"/>
      <point x="544.0" y="1608.0"/>
      <point x="748.0" y="1856.0"/>
      <point x="1024.0" y="1856.0" type="curve" smooth="yes"/>
      <point x="1296.0" y="1856.0"/>
      <point x="1416.0" y="1608.0"/>
      <point x="1344.0" y="1184.0" type="curve" smooth="yes"/>
    </contour>
  </outline>
</glyph>
<glyph name="one" format="2">
  <advance width="1260.0"/>
  <unicode hex="0031"/>
  <outline>
    <contour>
      <point x="1080.0" y="2048.0" type="line"/>
      <point x="872.0" y="2048.0" type="line"/>
      <point x="844.0" y="2024.0"/>
      <point x="664.0" y="1744.0"/>
      <point x="344.0" y="1744.0" type="curve"/>
      <point x="312.0" y="1536.0" type="line"/>
      <point x="548.0" y="1536.0"/>
      <point x="732.0" y="1632.0"/>
      <point x="768.0" y="1688.0" type="curve"/>
      <point x="784.0" y="1688.0" type="line"/>
      <point x="504.0" y="0.0" type="line"/>
      <point x="740.0" y="0.0" type="line"/>
    </contour>
  </outline>
</glyph>
<glyph name="five" format="2">
  <advance width="1680.0"/>
  <unicode hex="0035"/>
  <outline>
    <contour>
      <point x="468.0" y="948.0" type="line"/>
      <point x="576.0" y="1024.0"/>
      <point x="696.0" y="1076.0"/>
      <point x="884.0" y="1076.0" type="curve" smooth="yes"/>
      <point x="1096.0" y="1076.0"/>
      <point x="1288.0" y="948.0"/>
      <point x="1240.0" y="636.0" type="curve" smooth="yes"/>
      <point x="1192.0" y="356.0"/>
      <point x="952.0" y="184.0"/>
      <point x="720.0" y="184.0" type="curve" smooth="yes"/>
      <point x="512.0" y="184.0"/>
      <point x="384.0" y="292.0"/>
      <point x="380.0" y="512.0" type="curve"/>
      <point x="140.0" y="512.0" type="line"/>
      <point x="116.0" y="136.0"/>
      <point x="344.0" y="-28.0"/>
      <point x="668.0" y="-28.0" type="curve" smooth="yes"/>
      <point x="1108.0" y="-28.0"/>
      <point x="1408.0" y="248.0"/>
      <point x="1476.0" y="640.0" type="curve" smooth="yes"/>
      <point x="1540.0" y="1040.0"/>
      <point x="1320.0" y="1300.0"/>
      <point x="920.0" y="1300.0" type="curve" smooth="yes"/>
      <point x="780.0" y="1300.0"/>
      <point x="632.0" y="1240.0"/>
      <point x="544.0" y="1180.0" type="curve"/>
      <point x="532.0" y="1180.0" type="line"/>
      <point x="720.0" y="1812.0" type="line"/>
      <point x="1576.0" y="1812.0" type="line"/>
      <point x="1616.0" y="2048.0" type="line"/>
      <point x="536.0" y="2048.0" type="line"/>
      <point x="244.0" y="1000.0" type="line"/>
    </contour>
  </outline>
</glyph>
<glyph name="seven" format="2">
  <advance width="1552.0"/>
  <unicode hex="0037"/>
  <outline>
    <contour>
      <point x="1628.0" y="2048.0" type="line"/>
      <point x="348.0" y="2048.0" type="line"/>
      <point x="308.0" y="1816.0" type="line"/>
      <point x="1348.0" y="1816.0" type="line"/>
      <point x="200.0" y="0.0" type="line"/>
      <point x="472.0" y="0.0" type="line"/>
      <point x="1584.0" y="1792.0" type="line"/>
    </contour>
  </outline>
</glyph>
<glyph name="nine" format="2">
  <advance width="1680.0"/>
  <unicode hex="0039"/>
  <outline>
    <contour>
      <point x="408.0" y="512.0" type="curve"/>
      <point x="172.0" y="512.0" type="line"/>
      <point x="188.0" y="160.0"/>
      <point x="356.0" y="-32.0"/>
      <point x="680.0" y="-32.0" type="curve" smooth="yes"/>
      <point x="1148.0" y="-32.0"/>
      <point x="1432.0" y="368.0"/>
      <point x="1540.0" y="1000.0" type="curve" smooth="yes"/>
      <point x="1548.0" y="1068.0" type="line" smooth="yes"/>
      <point x="1660.0" y="1724.0"/>
      <point x="1496.0" y="2076.0"/>
      <point x="1048.0" y="2076.0" type="curve" smooth="yes"/>
      <point x="624.0" y="2076.0"/>
      <point x="348.0" y="1760.0"/>
      <point x="292.0" y="1416.0" type="curve" smooth="yes"/>
      <point x="236.0" y="1076.0"/>
      <point x="408.0" y="760.0"/>
      <point x="800.0" y="760.0" type="curve" smooth="yes"/>
      <point x="1084.0" y="760.0"/>
      <point x="1440.0" y="928.0"/>
      <point x="1520.0" y="1412.0" type="curve"/>
      <point x="1344.0" y="1412.0" type="line"/>
      <point x="1300.0" y="1152.0"/>
      <point x="1096.0" y="980.0"/>
      <point x="840.0" y="980.0" type="curve" smooth="yes"/>
      <point x="560.0" y="980.0"/>
      <point x="488.0" y="1188.0"/>
      <point x="528.0" y="1416.0" type="curve" smooth="yes"/>
      <point x="572.0" y="1692.0"/>
      <point x="756.0" y="1860.0"/>
      <point x="992.0" y="1860.0" type="curve" smooth="yes"/>
      <point x="1216.0" y="1860.0"/>
      <point x="1392.0" y="1708.0"/>
      <point x="1340.0" y="1396.0" type="curve"/>
      <point x="1296.0" y="1012.0" type="line"/>
      <point x="1184.0" y="340.0"/>
      <point x="932.0" y="192.0"/>
      <point x="712.0" y="192.0" type="curve" smooth="yes"/>
      <point x="472.0" y="192.0"/>
      <point x="432.0" y="368.0"/>
    </contour>
  </outline>
</glyph>
<glyph name="less" format="2">
  <advance width="1296.0"/>
  <unicode hex="003C"/>
  <guideline x="320.0" y="896.0" angle="41.9872"/>
  <guideline x="320.0" y="896.0" angle="318.0498"/>
  <guideline x="764.0" y="176.0" angle="0.0"/>
  <guideline x="1716.0" y="1616.0" angle="0.0"/>
  <guideline x="320.0" y="896.0" angle="0.0"/>
  <outline>
    <contour>
      <point x="1016.0" y="328.0" type="line"/>
      <point x="476.0" y="892.0" type="line"/>
      <point x="476.0" y="900.0" type="line"/>
      <point x="1204.0" y="1464.0" type="line"/>
      <point x="1072.0" y="1616.0" type="line"/>
      <point x="152.0" y="896.0" type="line"/>
      <point x="832.0" y="176.0" type="line"/>
    </contour>
  </outline>
</glyph>
<glyph name="D" format="2">
  <advance width="2024.0"/>
  <unicode hex="0044"/>
  <anchor x="728.0" y="0.0" name="bottom"/>
  <anchor x="1636.0" y="-560.0" name="bottom_dd"/>
  <anchor x="420.0" y="1056.0" name="cross"/>
  <anchor x="1104.0" y="2304.0" name="top"/>
  <anchor x="2096.0" y="2216.0" name="top0315"/>
  <anchor x="2092.0" y="2200.0" name="top_dd"/>
  <outline>
    <contour>
      <point x="752.0" y="0.0" type="line"/>
      <point x="1376.0" y="0.0"/>
      <point x="1792.0" y="388.0"/>
      <point x="1900.0" y="1028.0" type="curve"/>
      <point x="2004.0" y="1664.0"/>
      <point x="1716.0" y="2048.0"/>
      <point x="1120.0" y="2048.0" type="curve"/>
      <point x="588.0" y="2048.0" type="line"/>
      <point x="552.0" y="1828.0" type="line"/>
      <point x="1068.0" y="1828.0" type="line"/>
      <point x="1548.0" y="1828.0"/>
      <point x="1740.0" y="1524.0"/>
      <point x="1660.0" y="1028.0" type="curve"/>
      <point x="1576.0" y="528.0"/>
      <point x="1280.0" y="220.0"/>
      <point x="772.0" y="220.0" type="curve"/>
      <point x="296.0" y="220.0" type="line"/>
      <point x="260.0" y="0.0" type="line"/>
    </contour>
    <contour>
      <point x="708.0" y="2048.0" type="line"/>
      <point x="460.0" y="2048.0" type="line"/>
      <point x="120.0" y="0.0" type="line"/>
      <point x="368.0" y="0.0" type="line"/>
    </contour>
  </outline>
</glyph>
<glyph name="F" format="2">
  <advance width="1652.0"/>
  <unicode hex="0046"/>
  <anchor x="644.0" y="16.0" name="bottom"/>
  <anchor x="1368.0" y="-560.0" name="bottom_dd"/>
  <anchor x="324.0" y="480.0" name="cross"/>
  <anchor x="1144.0" y="2304.0" name="top"/>
  <anchor x="1828.0" y="2216.0" name="top0315"/>
  <anchor x="1824.0" y="2200.0" name="top_dd"/>
  <outline>
    <contour>
      <point x="708.0" y="2048.0" type="line"/>
      <point x="460.0" y="2048.0" type="line"/>
      <point x="120.0" y="0.0" type="line"/>
      <point x="368.0" y="0.0" type="line"/>
    </contour>
    <contour>
      <point x="1404.0" y="1136.0" type="line"/>
      <point x="528.0" y="1136.0" type="line"/>
      <point x="492.0" y="916.0" type="line"/>
      <point x="1368.0" y="916.0" type="line"/>
    </contour>
    <contour>
      <point x="1688.0" y="2048.0" type="line"/>
      <point x="680.0" y="2048.0" type="line"/>
      <point x="644.0" y="1828.0" type="line"/>
      <point x="1652.0" y="1828.0" type="line"/>
    </contour>
  </outline>
</glyph>
<glyph name="G" format="2">
  <advance width="2092.0"/>
  <unicode hex="0047"/>
  <guideline x="2196.0" y="1408.0" angle="0.0"/>
  <guideline x="2160.0" y="1304.0" angle="90.0"/>
  <guideline x="1492.0" y="1644.0" angle="90.0"/>
  <anchor x="936.0" y="-16.0" name="bottom"/>
  <anchor x="1804.0" y="-560.0" name="bottom_dd"/>
  <anchor x="1320.0" y="2304.0" name="top"/>
  <anchor x="2268.0" y="2244.0" name="top0315"/>
  <anchor x="2260.0" y="2200.0" name="top_dd"/>
  <outline>
    <contour>
      <point x="1956.0" y="1016.0" type="line"/>
      <point x="1216.0" y="1016.0" type="line"/>
      <point x="1180.0" y="796.0" type="line"/>
      <point x="1920.0" y="796.0" type="line"/>
    </contour>
    <contour>
      <point x="2004.0" y="1408.0" type="line"/>
      <point x="1956.0" y="1828.0"/>
      <point x="1688.0" y="2076.0"/>
      <point x="1280.0" y="2076.0" type="curve" smooth="yes"/>
      <point x="764.0" y="2076.0"/>
      <point x="316.0" y="1672.0"/>
      <point x="212.0" y="1024.0" type="curve"/>
      <point x="104.0" y="376.0"/>
      <point x="416.0" y="-28.0"/>
      <point x="948.0" y="-28.0" type="curve" smooth="yes"/>
      <point x="1424.0" y="-28.0"/>
      <point x="1836.0" y="292.0"/>
      <point x="1920.0" y="796.0" type="curve"/>
      <point x="1680.0" y="796.0" type="line"/>
      <point x="1624.0" y="448.0"/>
      <point x="1336.0" y="204.0"/>
      <point x="988.0" y="204.0" type="curve" smooth="yes"/>
      <point x="608.0" y="204.0"/>
      <point x="364.0" y="492.0"/>
      <point x="452.0" y="1024.0" type="curve"/>
      <point x="540.0" y="1556.0"/>
      <point x="880.0" y="1844.0"/>
      <point x="1244.0" y="1844.0" type="curve" smooth="yes"/>
      <point x="1508.0" y="1844.0"/>
      <point x="1704.0" y="1692.0"/>
      <point x="1752.0" y="1408.0" type="curve"/>
    </contour>
  </outline>
</glyph>
<glyph name="H" format="2">
  <advance width="2084.0"/>
  <unicode hex="0048"/>
  <guideline x="688.0" y="56.0" angle="90.0"/>
  <anchor x="912.0" y="0.0" name="bottom"/>
  <anchor x="1828.0" y="-560.0" name="bottom_dd"/>
  <anchor x="276.0" y="-4.0" name="cedilla"/>
  <anchor x="1816.0" y="88.0" name="cyrtic"/>
  <anchor x="1688.0" y="0.0" name="right"/>
  <anchor x="460.0" y="2048.0" name="tonos"/>
  <anchor x="1308.0" y="2308.0" name="top"/>
  <anchor x="2288.0" y="2216.0" name="top0315"/>
  <anchor x="2284.0" y="2200.0" name="top_dd"/>
  <outline>
    <contour>
      <point x="1684.0" y="1136.0" type="line"/>
      <point x="512.0" y="1136.0" type="line"/>
      <point x="476.0" y="916.0" type="line"/>
      <point x="1648.0" y="916.0" type="line"/>
    </contour>
    <contour>
      <point x="708.0" y="2048.0" type="line"/>
      <point x="460.0" y="2048.0" type="line"/>
      <point x="120.0" y="0.0" type="line"/>
      <point x="368.0" y="0.0" type="line"/>
    </contour>
    <contour>
      <point x="2048.0" y="2048.0" type="line"/>
      <point x="1800.0" y="2048.0" type="line"/>
      <point x="1460.0" y="0.0" type="line"/>
      <point x="1708.0" y="0.0" type="line"/>
    </contour>
  </outline>
</glyph>
<glyph name="I" format="2">
  <advance width="744.0"/>
  <unicode hex="0049"/>
  <anchor x="252.0" y="16.0" name="bottom"/>
  <anchor x="544.0" y="-560.0" name="bottom_dd"/>
  <anchor x="420.0" y="1056.0" name="cross"/>
  <anchor x="368.0" y="0.0" name="ogonek"/>
  <anchor x="388.0" y="0.0" name="right"/>
  <anchor x="460.0" y="2048.0" name="tonos"/>
  <anchor x="612.0" y="2304.0" name="top"/>
  <anchor x="1004.0" y="2216.0" name="top0315"/>
  <anchor x="1000.0" y="2200.0" name="top_dd"/>
  <outline>
    <contour>
      <point x="708.0" y="2048.0" type="line"/>
      <point x="460.0" y="2048.0" type="line"/>
      <point x="120.0" y="0.0" type="line"/>
      <point x="368.0" y="0.0" type="line"/>
    </contour>
  </outline>
</glyph>
<glyph name="J" format="2">
  <advance width="1424.0"/>
  <unicode hex="004A"/>
  <anchor x="584.0" y="-16.0" name="bottom"/>
  <anchor x="1344.0" y="-560.0" name="bottom_dd"/>
  <anchor x="1152.0" y="1216.0" name="cross"/>
  <anchor x="1332.0" y="2304.0" name="top"/>
  <anchor x="1800.0" y="2200.0" name="top0315"/>
  <anchor x="1800.0" y="2200.0" name="top_dd"/>
  <outline>
    <contour>
      <point x="920.0" y="584.0" type="line"/>
      <point x="868.0" y="272.0"/>
      <point x="676.0" y="192.0"/>
      <point x="516.0" y="192.0" type="curve" smooth="yes"/>
      <point x="320.0" y="192.0"/>
      <point x="172.0" y="308.0"/>
      <point x="204.0" y="512.0" type="curve"/>
      <point x="-36.0" y="512.0" type="line"/>
      <point x="-88.0" y="180.0"/>
      <point x="136.0" y="-28.0"/>
      <point x="480.0" y="-28.0" type="curve" smooth="yes"/>
      <point x="828.0" y="-28.0"/>
      <point x="1104.0" y="188.0"/>
      <point x="1168.0" y="584.0" type="curve"/>
      <point x="1412.0" y="2048.0" type="line"/>
      <point x="1164.0" y="2048.0" type="line"/>
    </contour>
  </outline>
</glyph>
<glyph name="K" format="2">
  <advance width="1836.0"/>
  <unicode hex="004B"/>
  <guideline x="2384.0" y="2048.0" angle="227.6708"/>
  <anchor x="792.0" y="0.0" name="bottom"/>
  <anchor x="1552.0" y="-560.0" name="bottom_dd"/>
  <anchor x="540.0" y="1692.0" name="cross"/>
  <anchor x="1576.0" y="88.0" name="cyrtic"/>
  <anchor x="1568.0" y="0.0" name="right"/>
  <anchor x="1096.0" y="2304.0" name="top"/>
  <anchor x="2008.0" y="2200.0" name="top0315"/>
  <anchor x="2008.0" y="2200.0" name="top_dd"/>
  <outline>
    <contour>
      <point x="708.0" y="2048.0" type="line"/>
      <point x="460.0" y="2048.0" type="line"/>
      <point x="120.0" y="0.0" type="line"/>
      <point x="368.0" y="0.0" type="line"/>
    </contour>
    <contour>
      <point x="1976.0" y="2048.0" type="line"/>
      <point x="1652.0" y="2048.0" type="line"/>
      <point x="564.0" y="1032.0" type="line"/>
      <point x="492.0" y="1032.0" type="line"/>
      <point x="424.0" y="612.0" type="line"/>
      <point x="792.0" y="960.0" type="line"/>
      <point x="808.0" y="980.0" type="line"/>
    </contour>
    <contour>
      <point x="1336.0" y="0.0" type="line"/>
      <point x="1636.0" y="0.0" type="line"/>
      <point x="940.0" y="1168.0" type="line"/>
      <point x="772.0" y="976.0" type="line"/>
    </contour>
  </outline>
</glyph>
<glyph name="N" format="2">
  <advance width="2080.0"/>
  <unicode hex="004E"/>
  <anchor x="868.0" y="0.0" name="bottom"/>
  <anchor x="1800.0" y="-560.0" name="bottom_dd"/>
  <anchor x="1656.0" y="0.0" name="right"/>
  <anchor x="1288.0" y="2304.0" name="top"/>
  <anchor x="2256.0" y="2200.0" name="top0315"/>
  <anchor x="2256.0" y="2200.0" name="top_dd"/>
  <outline>
    <contour>
      <point x="2044.0" y="2048.0" type="line"/>
      <point x="1800.0" y="2048.0" type="line"/>
      <point x="1532.0" y="436.0" type="line"/>
      <point x="1512.0" y="436.0" type="line"/>
      <point x="700.0" y="2048.0" type="line"/>
      <point x="460.0" y="2048.0" type="line"/>
      <point x="120.0" y="0.0" type="line"/>
      <point x="368.0" y="0.0" type="line"/>
      <point x="636.0" y="1604.0" type="line"/>
      <point x="656.0" y="1604.0" type="line"/>
      <point x="1464.0" y="0.0" type="line"/>
      <point x="1704.0" y="0.0" type="line"/>
    </contour>
  </outline>
</glyph>
<glyph name="O" format="2">
  <advance width="2144.0"/>
  <unicode hex="004F"/>
  <guideline x="1512.0" y="1652.0" angle="90.0"/>
  <anchor x="944.0" y="0.0" name="bottom"/>
  <anchor x="1828.0" y="-560.0" name="bottom_dd"/>
  <anchor x="1140.0" y="-8.0" name="ogonek"/>
  <anchor x="604.0" y="2048.0" name="tonos"/>
  <anchor x="1328.0" y="2304.0" name="top"/>
  <anchor x="2220.0" y="2200.0" name="top0315"/>
  <anchor x="2220.0" y="2200.0" name="top_dd"/>
  <outline>
    <contour>
      <point x="2020.0" y="1024.0" type="curve"/>
      <point x="2124.0" y="1672.0"/>
      <point x="1812.0" y="2076.0"/>
      <point x="1288.0" y="2076.0" type="curve" smooth="yes"/>
      <point x="764.0" y="2076.0"/>
      <point x="316.0" y="1672.0"/>
      <point x="212.0" y="1024.0" type="curve"/>
      <point x="104.0" y="376.0"/>
      <point x="416.0" y="-28.0"/>
      <point x="940.0" y="-28.0" type="curve" smooth="yes"/>
      <point x="1464.0" y="-28.0"/>
      <point x="1912.0" y="376.0"/>
    </contour>
    <contour>
      <point x="1780.0" y="1024.0" type="curve"/>
      <point x="1692.0" y="492.0"/>
      <point x="1352.0" y="204.0"/>
      <point x="980.0" y="204.0" type="curve" smooth="yes"/>
      <point x="608.0" y="204.0"/>
      <point x="364.0" y="492.0"/>
      <point x="452.0" y="1024.0" type="curve"/>
      <point x="540.0" y="1556.0"/>
      <point x="880.0" y="1844.0"/>
      <point x="1252.0" y="1844.0" type="curve" smooth="yes"/>
      <point x="1624.0" y="1844.0"/>
      <point x="1868.0" y="1556.0"/>
    </contour>
  </outline>
</glyph>
<glyph name="P" format="2">
  <advance width="1784.0"/>
  <unicode hex="0050"/>
  <guideline x="1888.0" y="1760.0" angle="90.0"/>
  <guideline x="1764.0" y="1804.0" angle="90.0"/>
  <anchor x="608.0" y="0.0" name="bottom"/>
  <anchor x="1576.0" y="-560.0" name="bottom_dd"/>
  <anchor x="248.0" y="2000.0" name="tonos"/>
  <anchor x="1160.0" y="2304.0" name="top"/>
  <anchor x="2036.0" y="2216.0" name="top0315"/>
  <anchor x="2032.0" y="2200.0" name="top_dd"/>
  <outline>
    <contour>
      <point x="932.0" y="740.0" type="line"/>
      <point x="1408.0" y="740.0"/>
      <point x="1664.0" y="1032.0"/>
      <point x="1724.0" y="1400.0" type="curve"/>
      <point x="1784.0" y="1768.0"/>
      <point x="1624.0" y="2048.0"/>
      <point x="1144.0" y="2048.0" type="curve"/>
      <point x="460.0" y="2048.0" type="line"/>
      <point x="120.0" y="0.0" type="line"/>
      <point x="368.0" y="0.0" type="line"/>
      <point x="672.0" y="1828.0" type="line"/>
      <point x="1108.0" y="1828.0" type="line"/>
      <point x="1440.0" y="1828.0"/>
      <point x="1524.0" y="1652.0"/>
      <point x="1480.0" y="1400.0" type="curve"/>
      <point x="1440.0" y="1148.0"/>
      <point x="1296.0" y="960.0"/>
      <point x="968.0" y="960.0" type="curve"/>
      <point x="480.0" y="960.0" type="line"/>
      <point x="444.0" y="740.0" type="line"/>
    </contour>
  </outline>
</glyph>
<glyph name="T" format="2">
  <advance width="1808.0"/>
  <unicode hex="0054"/>
  <guideline x="968.0" y="176.0" angle="90.0"/>
  <anchor x="776.0" y="0.0" name="bottom"/>
  <anchor x="1444.0" y="-560.0" name="bottom_dd"/>
  <anchor x="808.0" y="0.0" name="cedilla"/>
  <anchor x="952.0" y="1056.0" name="cross"/>
  <anchor x="1028.0" y="88.0" name="cyrtic"/>
  <anchor x="832.0" y="0.0" name="right"/>
  <anchor x="1160.0" y="2304.0" name="top"/>
  <anchor x="1900.0" y="2200.0" name="top0315"/>
  <anchor x="1900.0" y="2200.0" name="top_dd"/>
  <outline>
    <contour>
      <point x="1240.0" y="2048.0" type="line"/>
      <point x="992.0" y="2048.0" type="line"/>
      <point x="652.0" y="0.0" type="line"/>
      <point x="900.0" y="0.0" type="line"/>
    </contour>
    <contour>
      <point x="1884.0" y="2048.0" type="line"/>
      <point x="348.0" y="2048.0" type="line"/>
      <point x="312.0" y="1828.0" type="line"/>
      <point x="1848.0" y="1828.0" type="line"/>
    </contour>
  </outline>
</glyph>
<glyph name="U" format="2">
  <advance width="2088.0"/>
  <unicode hex="0055"/>
  <guideline x="1688.0" y="2084.0" angle="90.0"/>
  <anchor x="912.0" y="-28.0" name="bottom"/>
  <anchor x="1608.0" y="-560.0" name="bottom_dd"/>
  <anchor x="1112.0" y="4.0" name="ogonek"/>
  <anchor x="1032.0" y="0.0" name="right"/>
  <anchor x="1300.0" y="2304.0" name="top"/>
  <anchor x="2064.0" y="2200.0" name="top0315"/>
  <anchor x="2064.0" y="2200.0" name="top_dd"/>
  <outline>
    <contour>
      <point x="1804.0" y="2048.0" type="line"/>
      <point x="1580.0" y="692.0" type="line" smooth="yes"/>
      <point x="1528.0" y="372.0"/>
      <point x="1240.0" y="196.0"/>
      <point x="948.0" y="196.0" type="curve" smooth="yes"/>
      <point x="656.0" y="196.0"/>
      <point x="432.0" y="372.0"/>
      <point x="484.0" y="692.0" type="curve" smooth="yes"/>
      <point x="708.0" y="2048.0" type="line"/>
      <point x="460.0" y="2048.0" type="line"/>
      <point x="236.0" y="692.0" type="line"/>
      <point x="160.0" y="232.0"/>
      <point x="480.0" y="-36.0"/>
      <point x="912.0" y="-36.0" type="curve" smooth="yes"/>
      <point x="1344.0" y="-36.0"/>
      <point x="1752.0" y="232.0"/>
      <point x="1828.0" y="692.0" type="curve"/>
      <point x="2052.0" y="2048.0" type="line"/>
    </contour>
  </outline>
</glyph>
<glyph name="X" format="2">
  <advance width="1808.0"/>
  <unicode hex="0058"/>
  <guideline x="2424.0" y="2180.0" angle="90.0"/>
  <guideline x="1196.0" y="1372.0" angle="90.0"/>
  <guideline x="708.0" y="2060.0" angle="90.0"/>
  <guideline x="1480.0" y="1024.0" angle="0.0"/>
  <anchor x="780.0" y="16.0" name="bottom"/>
  <anchor x="1628.0" y="-560.0" name="bottom_dd"/>
  <anchor x="948.0" y="1024.0" name="cross"/>
  <anchor x="1576.0" y="88.0" name="cyrtic"/>
  <anchor x="1424.0" y="0.0" name="right"/>
  <anchor x="1160.0" y="2304.0" name="top"/>
  <anchor x="2088.0" y="2216.0" name="top0315"/>
  <anchor x="2084.0" y="2200.0" name="top_dd"/>
  <outline>
    <contour>
      <point x="580.0" y="2048.0" type="line"/>
      <point x="288.0" y="2048.0" type="line"/>
      <point x="780.0" y="1024.0" type="line"/>
      <point x="-52.0" y="0.0" type="line"/>
      <point x="240.0" y="0.0" type="line"/>
      <point x="908.0" y="836.0" type="line"/>
      <point x="924.0" y="836.0" type="line"/>
      <point x="1312.0" y="0.0" type="line"/>
      <point x="1604.0" y="0.0" type="line"/>
      <point x="1132.0" y="1024.0" type="line"/>
      <point x="1944.0" y="2048.0" type="line"/>
      <point x="1652.0" y="2048.0" type="line"/>
      <point x="984.0" y="1196.0" type="line"/>
      <point x="968.0" y="1196.0" type="line"/>
    </contour>
  </outline>
</glyph>
<glyph name="Y" format="2">
  <advance width="1880.0"/>
  <unicode hex="0059"/>
  <guideline x="1228.0" y="1360.0" angle="90.0"/>
  <guideline x="992.0" y="2092.0" angle="90.0"/>
  <guideline x="2156.0" y="2100.0" angle="90.0"/>
  <anchor x="812.0" y="0.0" name="bottom"/>
  <anchor x="1692.0" y="-560.0" name="bottom_dd"/>
  <anchor x="948.0" y="816.0" name="cross"/>
  <anchor x="196.0" y="2048.0" name="tonos"/>
  <anchor x="1196.0" y="2304.0" name="top"/>
  <anchor x="2148.0" y="2200.0" name="top0315"/>
  <anchor x="2148.0" y="2200.0" name="top_dd"/>
  <outline>
    <contour>
      <point x="572.0" y="2048.0" type="line"/>
      <point x="288.0" y="2048.0" type="line"/>
      <point x="828.0" y="844.0" type="line"/>
      <point x="688.0" y="0.0" type="line"/>
      <point x="936.0" y="0.0" type="line"/>
      <point x="1076.0" y="844.0" type="line"/>
      <point x="2016.0" y="2048.0" type="line"/>
      <point x="1732.0" y="2048.0" type="line"/>
      <point x="992.0" y="1072.0" type="line"/>
    </contour>
    <contour>
      <point x="960.0" y="1044.0" type="line"/>
      <point x="1008.0" y="1044.0" type="line"/>
      <point x="1016.0" y="1092.0" type="line"/>
      <point x="968.0" y="1092.0" type="line"/>
    </contour>
  </outline>
</glyph>
<glyph name="Z" format="2">
  <advance width="1760.0"/>
  <unicode hex="005A"/>
  <guideline x="1324.0" y="248.0" angle="90.0"/>
  <guideline x="416.0" y="1280.0" angle="90.0"/>
  <guideline x="1560.0" y="2156.0" angle="90.0"/>
  <anchor x="744.0" y="0.0" name="bottom"/>
  <anchor x="1460.0" y="-560.0" name="bottom_dd"/>
  <anchor x="948.0" y="1056.0" name="cross"/>
  <anchor x="1136.0" y="2304.0" name="top"/>
  <anchor x="1980.0" y="2200.0" name="top0315"/>
  <anchor x="1980.0" y="2200.0" name="top_dd"/>
  <outline>
    <contour>
      <point x="1500.0" y="220.0" type="line"/>
      <point x="192.0" y="220.0" type="line"/>
      <point x="156.0" y="0.0" type="line"/>
      <point x="1464.0" y="0.0" type="line"/>
    </contour>
    <contour>
      <point x="1764.0" y="1868.0" type="line"/>
      <point x="1792.0" y="2048.0" type="line"/>
      <point x="1644.0" y="2048.0" type="line"/>
      <point x="84.0" y="180.0" type="line"/>
      <point x="52.0" y="0.0" type="line"/>
      <point x="200.0" y="0.0" type="line"/>
    </contour>
    <contour>
      <point x="1668.0" y="2048.0" type="line"/>
      <point x="380.0" y="2048.0" type="line"/>
      <point x="344.0" y="1828.0" type="line"/>
      <point x="1632.0" y="1828.0" type="line"/>
    </contour>
  </outline>
</glyph>
<glyph name="backslash" format="2">
  <advance width="1008.0"/>
  <unicode hex="005C"/>
  <outline>
    <contour>
      <point x="300.0" y="2048.0" type="line"/>
      <point x="504.0" y="-308.0" type="line"/>
      <point x="736.0" y="-308.0" type="line"/>
      <point x="532.0" y="2048.0" type="line"/>
    </contour>
  </outline>
</glyph>
<glyph name="underscore" format="2">
  <advance width="1272.0"/>
  <unicode hex="005F"/>
  <anchor x="540.0" y="216.0" name="_bottom"/>
  <outline>
    <contour>
      <point x="1148.0" y="0.0" type="line"/>
      <point x="-132.0" y="0.0" type="line"/>
      <point x="-168.0" y="-220.0" type="line"/>
      <point x="1112.0" y="-220.0" type="line"/>
    </contour>
  </outline>
</glyph>
<glyph name="d" format="2">
  <advance width="1716.0"/>
  <unicode hex="0064"/>
  <anchor x="728.0" y="0.0" name="bottom"/>
  <anchor x="-205.416" y="-560.0" name="bottom_dd"/>
  <anchor x="1542.736" y="1760.0" name="cross"/>
  <anchor x="1066.854" y="2304.0" name="top"/>
  <anchor x="253.718" y="2216.0" name="top0315"/>
  <anchor x="252.42" y="2200.0" name="top_dd"/>
  <outline>
    <contour>
      <point x="1710.093" y="2048.0" type="line"/>
      <point x="1474.093" y="2048.0" type="line"/>
      <point x="1328.049" y="1172.0" type="line"/>
      <point x="1343.582" y="784.0" type="line"/>
      <point x="1191.357" y="288.0" type="line"/>
      <point x="1144.0" y="0.0" type="line"/>
      <point x="1372.0" y="0.0" type="line"/>
    </contour>
    <contour>
      <point x="1443.781" y="1292.0" type="line"/>
      <point x="1327.781" y="1292.0" type="line"/>
      <point x="1290.269" y="1372.0"/>
      <point x="1227.192" y="1556.0"/>
      <point x="927.192" y="1556.0" type="curve" smooth="yes"/>
      <point x="539.192" y="1556.0"/>
      <point x="221.213" y="1248.0"/>
      <point x="140.96" y="764.0" type="curve" smooth="yes"/>
      <point x="59.384" y="276.0"/>
      <point x="277.405" y="-32.0"/>
      <point x="661.405" y="-32.0" type="curve" smooth="yes"/>
      <point x="957.405" y="-32.0"/>
      <point x="1086.327" y="152.0"/>
      <point x="1154.14" y="236.0" type="curve"/>
      <point x="1270.14" y="236.0" type="line"/>
    </contour>
    <contour>
      <point x="378.285" y="768.0" type="curve" smooth="yes"/>
      <point x="433.561" y="1092.0"/>
      <point x="620.998" y="1344.0"/>
      <point x="920.998" y="1344.0" type="curve" smooth="yes"/>
      <point x="1208.998" y="1344.0"/>
      <point x="1324.183" y="1112.0"/>
      <point x="1266.285" y="768.0" type="curve" smooth="yes"/>
      <point x="1207.062" y="420.0"/>
      <point x="1011.598" y="180.0"/>
      <point x="727.598" y="180.0" type="curve" smooth="yes"/>
      <point x="431.598" y="180.0"/>
      <point x="325.684" y="440.0"/>
    </contour>
  </outline>
</glyph>
<glyph name="f" format="2">
  <advance width="1008.0"/>
  <unicode hex="0066"/>
  <anchor x="312.0" y="0.0" name="bottom"/>
  <anchor x="760.0" y="-560.0" name="bottom_dd"/>
  <anchor x="800.0" y="2304.0" name="top"/>
  <anchor x="1148.0" y="2116.0" name="top0315"/>
  <anchor x="884.0" y="1484.0" name="top_dd"/>
  <outline>
    <contour>
      <point x="1028.0" y="1536.0" type="line"/>
      <point x="200.0" y="1536.0" type="line"/>
      <point x="164.0" y="1316.0" type="line"/>
      <point x="992.0" y="1316.0" type="line"/>
    </contour>
    <contour>
      <point x="192.0" y="0.0" type="line"/>
      <point x="428.0" y="0.0" type="line"/>
      <point x="696.0" y="1624.0" type="line"/>
      <point x="724.0" y="1776.0"/>
      <point x="800.0" y="1856.0"/>
      <point x="956.0" y="1856.0" type="curve" smooth="yes"/>
      <point x="1024.0" y="1856.0"/>
      <point x="1060.0" y="1840.0"/>
      <point x="1084.0" y="1832.0" type="curve"/>
      <point x="1184.0" y="2036.0" type="line"/>
      <point x="1152.0" y="2052.0"/>
      <point x="1084.0" y="2076.0"/>
      <point x="968.0" y="2076.0" type="curve" smooth="yes"/>
      <point x="748.0" y="2076.0"/>
      <point x="516.0" y="1944.0"/>
      <point x="472.0" y="1680.0" type="curve"/>
    </contour>
  </outline>
</glyph>
<glyph name="l" format="2">
  <advance width="668.0"/>
  <unicode hex="006C"/>
  <guideline x="632.0" y="908.0" angle="90.0"/>
  <anchor x="208.0" y="0.0" name="bottom"/>
  <anchor x="428.0" y="-560.0" name="bottom_dd"/>
  <anchor x="840.0" y="2112.0" name="caron"/>
  <anchor x="384.0" y="1056.0" name="cross"/>
  <anchor x="656.0" y="1064.0" name="dot"/>
  <anchor x="964.0" y="2124.0" name="marktop"/>
  <anchor x="588.0" y="2304.0" name="top"/>
  <anchor x="908.0" y="2336.0" name="top0315"/>
  <anchor x="884.0" y="2200.0" name="top_dd"/>
  <outline>
    <contour>
      <point x="664.0" y="2048.0" type="line"/>
      <point x="428.0" y="2048.0" type="line"/>
      <point x="88.0" y="0.0" type="line"/>
      <point x="324.0" y="0.0" type="line"/>
    </contour>
  </outline>
</glyph>
<glyph name="m" format="2">
  <advance width="2404.0"/>
  <unicode hex="006D"/>
  <anchor x="1076.0" y="0.0" name="bottom"/>
  <anchor x="2220.0" y="-560.0" name="bottom_dd"/>
  <anchor x="1440.0" y="1792.0" name="marktop"/>
  <anchor x="1440.0" y="1792.0" name="top"/>
  <anchor x="2608.0" y="1776.0" name="top0315"/>
  <anchor x="2676.0" y="2200.0" name="top_dd"/>
  <outline>
    <contour>
      <point x="1356.0" y="964.0" type="line" smooth="yes"/>
      <point x="1392.0" y="1180.0"/>
      <point x="1536.0" y="1328.0"/>
      <point x="1744.0" y="1328.0" type="curve" smooth="yes"/>
      <point x="1872.0" y="1328.0"/>
      <point x="2032.0" y="1252.0"/>
      <point x="1992.0" y="1012.0" type="curve" smooth="yes"/>
      <point x="1824.0" y="0.0" type="line"/>
      <point x="2060.0" y="0.0" type="line"/>
      <point x="2228.0" y="1004.0" type="line" smooth="yes"/>
      <point x="2288.0" y="1380.0"/>
      <point x="2112.0" y="1556.0"/>
      <point x="1856.0" y="1556.0" type="curve" smooth="yes"/>
      <point x="1632.0" y="1556.0"/>
      <point x="1428.0" y="1408.0"/>
      <point x="1364.0" y="1280.0" type="curve"/>
      <point x="1348.0" y="1280.0" type="line"/>
      <point x="1304.0" y="1432.0"/>
      <point x="1192.0" y="1556.0"/>
      <point x="1000.0" y="1556.0" type="curve" smooth="yes"/>
      <point x="804.0" y="1556.0"/>
      <point x="616.0" y="1408.0"/>
      <point x="552.0" y="1276.0" type="curve"/>
      <point x="536.0" y="1276.0" type="line"/>
      <point x="580.0" y="1536.0" type="line"/>
      <point x="344.0" y="1536.0" type="line"/>
      <point x="88.0" y="0.0" type="line"/>
      <point x="324.0" y="0.0" type="line"/>
      <point x="476.0" y="916.0" type="line" smooth="yes"/>
      <point x="520.0" y="1168.0"/>
      <point x="716.0" y="1328.0"/>
      <point x="896.0" y="1328.0" type="curve" smooth="yes"/>
      <point x="1068.0" y="1328.0"/>
      <point x="1160.0" y="1236.0"/>
      <point x="1124.0" y="1004.0" type="curve" smooth="yes"/>
      <point x="956.0" y="0.0" type="line"/>
      <point x="1196.0" y="0.0" type="line"/>
    </contour>
  </outline>
</glyph>
<glyph name="n" format="2">
  <advance width="1636.0"/>
  <unicode hex="006E"/>
  <anchor x="692.0" y="0.0" name="bottom"/>
  <anchor x="1188.0" y="-560.0" name="bottom_dd"/>
  <anchor x="32.0" y="2120.0" name="caron"/>
  <anchor x="992.0" y="1792.0" name="marktop"/>
  <anchor x="1088.0" y="0.0" name="right"/>
  <anchor x="992.0" y="1792.0" name="top"/>
  <anchor x="1576.0" y="1776.0" name="top0315"/>
  <anchor x="1644.0" y="2200.0" name="top_dd"/>
  <outline>
    <contour>
      <point x="476.0" y="908.0" type="line" smooth="yes"/>
      <point x="524.0" y="1196.0"/>
      <point x="764.0" y="1328.0"/>
      <point x="940.0" y="1328.0" type="curve" smooth="yes"/>
      <point x="1136.0" y="1328.0"/>
      <point x="1252.0" y="1184.0"/>
      <point x="1216.0" y="960.0" type="curve" smooth="yes"/>
      <point x="1056.0" y="0.0" type="line"/>
      <point x="1292.0" y="0.0" type="line"/>
      <point x="1456.0" y="976.0" type="line" smooth="yes"/>
      <point x="1520.0" y="1368.0"/>
      <point x="1344.0" y="1556.0"/>
      <point x="1056.0" y="1556.0" type="curve" smooth="yes"/>
      <point x="824.0" y="1556.0"/>
      <point x="648.0" y="1432.0"/>
      <point x="552.0" y="1276.0" type="curve"/>
      <point x="536.0" y="1276.0" type="line"/>
      <point x="580.0" y="1536.0" type="line"/>
      <point x="344.0" y="1536.0" type="line"/>
      <point x="88.0" y="0.0" type="line"/>
      <point x="324.0" y="0.0" type="line"/>
    </contour>
  </outline>
</glyph>
<glyph name="o" format="2">
  <advance width="1680.0"/>
  <unicode hex="006F"/>
  <guideline x="1052.0" y="1208.0" angle="90.0"/>
  <anchor x="712.0" y="0.0" name="bottom"/>
  <anchor x="1396.0" y="-560.0" name="bottom_dd"/>
  <anchor x="928.0" y="0.0" name="ogonek"/>
  <anchor x="1388.0" y="896.0" name="rhotichook"/>
  <anchor x="1008.0" y="1792.0" name="top"/>
  <anchor x="1720.0" y="1792.0" name="top0315"/>
  <anchor x="1848.0" y="2176.0" name="top_dd"/>
  <outline>
    <contour>
      <point x="708.0" y="-32.0" type="curve" smooth="yes"/>
      <point x="1124.0" y="-32.0"/>
      <point x="1456.0" y="284.0"/>
      <point x="1536.0" y="760.0" type="curve" smooth="yes"/>
      <point x="1616.0" y="1240.0"/>
      <point x="1388.0" y="1556.0"/>
      <point x="972.0" y="1556.0" type="curve" smooth="yes"/>
      <point x="556.0" y="1556.0"/>
      <point x="224.0" y="1240.0"/>
      <point x="144.0" y="760.0" type="curve" smooth="yes"/>
      <point x="64.0" y="284.0"/>
      <point x="292.0" y="-32.0"/>
    </contour>
    <contour>
      <point x="744.0" y="180.0" type="curve" smooth="yes"/>
      <point x="428.0" y="180.0"/>
      <point x="328.0" y="452.0"/>
      <point x="380.0" y="760.0" type="curve" smooth="yes"/>
      <point x="428.0" y="1068.0"/>
      <point x="620.0" y="1344.0"/>
      <point x="936.0" y="1344.0" type="curve" smooth="yes"/>
      <point x="1252.0" y="1344.0"/>
      <point x="1348.0" y="1068.0"/>
      <point x="1300.0" y="760.0" type="curve" smooth="yes"/>
      <point x="1248.0" y="452.0"/>
      <point x="1060.0" y="180.0"/>
    </contour>
  </outline>
</glyph>
<glyph name="t" format="2">
  <advance width="1000.0"/>
  <unicode hex="0074"/>
  <guideline x="1132.0" y="1332.0" angle="90.0"/>
  <guideline x="988.0" y="1920.0" angle="90.0"/>
  <anchor x="468.0" y="0.0" name="bottom"/>
  <anchor x="672.0" y="-560.0" name="bottom_dd"/>
  <anchor x="972.0" y="2288.0" name="caron"/>
  <anchor x="536.0" y="0.0" name="cedilla"/>
  <anchor x="444.0" y="932.0" name="cross"/>
  <anchor x="920.0" y="1876.0" name="marktop"/>
  <anchor x="628.0" y="2048.0" name="top"/>
  <anchor x="1100.0" y="2032.0" name="top0315"/>
  <anchor x="1128.0" y="2200.0" name="top_dd"/>
  <outline>
    <contour>
      <point x="988.0" y="1536.0" type="line"/>
      <point x="192.0" y="1536.0" type="line"/>
      <point x="156.0" y="1316.0" type="line"/>
      <point x="952.0" y="1316.0" type="line"/>
    </contour>
    <contour>
      <point x="476.0" y="1864.0" type="line"/>
      <point x="232.0" y="376.0" type="line"/>
      <point x="188.0" y="108.0"/>
      <point x="380.0" y="-20.0"/>
      <point x="580.0" y="-20.0" type="curve" smooth="yes"/>
      <point x="668.0" y="-20.0"/>
      <point x="728.0" y="-4.0"/>
      <point x="764.0" y="8.0" type="curve"/>
      <point x="748.0" y="220.0" type="line"/>
      <point x="728.0" y="216.0"/>
      <point x="696.0" y="208.0"/>
      <point x="644.0" y="208.0" type="curve" smooth="yes"/>
      <point x="540.0" y="208.0"/>
      <point x="444.0" y="240.0"/>
      <point x="476.0" y="440.0" type="curve"/>
      <point x="712.0" y="1864.0" type="line"/>
    </contour>
  </outline>
</glyph>
<glyph name="x" format="2">
  <advance width="1520.0"/>
  <unicode hex="0078"/>
  <guideline x="752.0" y="768.0" angle="90.0"/>
  <anchor x="632.0" y="0.0" name="bottom"/>
  <anchor x="1176.0" y="-560.0" name="bottom_dd"/>
  <anchor x="760.0" y="768.0" name="cross"/>
  <anchor x="1248.0" y="88.0" name="cyrtic"/>
  <anchor x="1056.0" y="0.0" name="right"/>
  <anchor x="928.0" y="1792.0" name="top"/>
  <anchor x="1560.0" y="1760.0" name="top0315"/>
  <anchor x="1632.0" y="2200.0" name="top_dd"/>
  <outline>
    <contour>
      <point x="520.0" y="1536.0" type="line"/>
      <point x="248.0" y="1536.0" type="line"/>
      <point x="608.0" y="768.0" type="line"/>
      <point x="-8.0" y="0.0" type="line"/>
      <point x="264.0" y="0.0" type="line"/>
      <point x="732.0" y="596.0" type="line"/>
      <point x="1000.0" y="0.0" type="line"/>
      <point x="1272.0" y="0.0" type="line"/>
      <point x="904.0" y="768.0" type="line"/>
      <point x="1528.0" y="1536.0" type="line"/>
      <point x="1256.0" y="1536.0" type="line"/>
      <point x="784.0" y="908.0" type="line"/>
    </contour>
  </outline>
</glyph>
<glyph name="z" format="2">
  <advance width="1524.0"/>
  <unicode hex="007A"/>
  <guideline x="620.0" y="500.0" angle="90.0"/>
  <anchor x="624.0" y="0.0" name="bottom"/>
  <anchor x="1176.0" y="-560.0" name="bottom_dd"/>
  <anchor x="760.0" y="768.0" name="cross"/>
  <anchor x="928.0" y="1792.0" name="top"/>
  <anchor x="1564.0" y="1776.0" name="top0315"/>
  <anchor x="1632.0" y="2200.0" name="top_dd"/>
  <outline>
    <contour>
      <point x="1272.0" y="220.0" type="line"/>
      <point x="188.0" y="220.0" type="line"/>
      <point x="152.0" y="0.0" type="line"/>
      <point x="1236.0" y="0.0" type="line"/>
    </contour>
    <contour>
      <point x="1440.0" y="1348.0" type="line"/>
      <point x="1472.0" y="1536.0" type="line"/>
      <point x="1336.0" y="1536.0" type="line"/>
      <point x="80.0" y="200.0" type="line"/>
      <point x="48.0" y="0.0" type="line"/>
      <point x="188.0" y="0.0" type="line"/>
    </contour>
    <contour>
      <point x="1352.0" y="1536.0" type="line"/>
      <point x="288.0" y="1536.0" type="line"/>
      <point x="252.0" y="1316.0" type="line"/>
      <point x="1316.0" y="1316.0" type="line"/>
    </contour>
  </outline>
</glyph>
<glyph name="acute" format="2">
  <advance width="768.0"/>
  <unicode hex="00B4"/>
  <anchor x="480.0" y="1776.0" name="_top"/>
  <anchor x="560.0" y="2268.0" name="mkmktop_acc"/>
  <outline>
    <contour>
      <point x="344.0" y="1704.0" type="line"/>
      <point x="520.0" y="1704.0" type="line"/>
      <point x="896.0" y="2112.0" type="line"/>
      <point x="652.0" y="2112.0" type="line"/>
    </contour>
  </outline>
</glyph>
<glyph name="mu" format="2">
  <advance width="1636.0"/>
  <unicode hex="00B5"/>
  <guideline x="1264.0" y="692.0" angle="0.0"/>
  <guideline x="1068.0" y="304.0" angle="0.0"/>
  <guideline x="1020.0" y="400.0" angle="0.0"/>
  <outline>
    <contour>
      <point x="1324.0" y="1536.0" type="line"/>
      <point x="1124.0" y="344.0" type="line"/>
      <point x="1096.0" y="0.0" type="line"/>
      <point x="1292.0" y="0.0" type="line"/>
      <point x="1548.0" y="1536.0" type="line"/>
    </contour>
    <contour>
      <point x="1184.0" y="692.0" type="line"/>
      <point x="1128.0" y="360.0"/>
      <point x="920.0" y="212.0"/>
      <point x="732.0" y="212.0" type="curve" smooth="yes"/>
      <point x="544.0" y="212.0"/>
      <point x="384.0" y="360.0"/>
      <point x="440.0" y="692.0" type="curve"/>
      <point x="328.0" y="692.0" type="line"/>
      <point x="252.0" y="240.0"/>
      <point x="412.0" y="-28.0"/>
      <point x="696.0" y="-28.0" type="curve" smooth="yes"/>
      <point x="980.0" y="-28.0"/>
      <point x="1220.0" y="240.0"/>
      <point x="1296.0" y="692.0" type="curve"/>
    </contour>
    <contour>
      <point x="344.0" y="1536.0" type="line"/>
      <point x="-4.0" y="-572.0" type="line"/>
      <point x="232.0" y="-572.0" type="line"/>
      <point x="580.0" y="1536.0" type="line"/>
    </contour>
  </outline>
</glyph>
<glyph name="ae" format="2">
  <advance width="2604.0"/>
  <unicode hex="00E6"/>
  <guideline x="1392.0" y="888.0" angle="0.0"/>
  <anchor x="1452.0" y="1792.0" name="top"/>
  <anchor x="2632.0" y="1776.0" name="top0315"/>
  <anchor x="2700.0" y="2200.0" name="top_dd"/>
  <outline>
    <contour>
      <point x="1100.0" y="556.0" type="line" smooth="yes"/>
      <point x="1068.0" y="364.0"/>
      <point x="884.0" y="176.0"/>
      <point x="604.0" y="176.0" type="curve" smooth="yes"/>
      <point x="416.0" y="176.0"/>
      <point x="296.0" y="260.0"/>
      <point x="324.0" y="424.0" type="curve" smooth="yes"/>
      <point x="352.0" y="604.0"/>
      <point x="528.0" y="660.0"/>
      <point x="716.0" y="684.0" type="curve" smooth="yes"/>
      <point x="816.0" y="696.0"/>
      <point x="1088.0" y="724.0"/>
      <point x="1136.0" y="772.0" type="curve"/>
    </contour>
    <contour>
      <point x="260.0" y="1196.0" type="curve"/>
      <point x="468.0" y="1116.0" type="line"/>
      <point x="540.0" y="1228.0"/>
      <point x="684.0" y="1348.0"/>
      <point x="912.0" y="1348.0" type="curve" smooth="yes"/>
      <point x="1096.0" y="1348.0"/>
      <point x="1220.0" y="1268.0"/>
      <point x="1176.0" y="1012.0" type="curve" smooth="yes"/>
      <point x="1176.0" y="1008.0" type="line"/>
      <point x="1160.0" y="912.0"/>
      <point x="992.0" y="916.0"/>
      <point x="760.0" y="888.0" type="curve" smooth="yes"/>
      <point x="464.0" y="852.0"/>
      <point x="148.0" y="784.0"/>
      <point x="88.0" y="436.0" type="curve" smooth="yes"/>
      <point x="40.0" y="136.0"/>
      <point x="244.0" y="-36.0"/>
      <point x="536.0" y="-36.0" type="curve" smooth="yes"/>
      <point x="896.0" y="-36.0"/>
      <point x="1120.0" y="220.0"/>
      <point x="1156.0" y="328.0" type="curve"/>
      <point x="1168.0" y="328.0" type="line"/>
      <point x="1388.0" y="1272.0" type="line"/>
      <point x="1360.0" y="1428.0"/>
      <point x="1216.0" y="1556.0"/>
      <point x="936.0" y="1556.0" type="curve" smooth="yes"/>
      <point x="704.0" y="1556.0"/>
      <point x="424.0" y="1476.0"/>
    </contour>
    <contour>
      <point x="2368.0" y="356.0" type="curve"/>
      <point x="2152.0" y="420.0" type="line"/>
      <point x="2064.0" y="260.0"/>
      <point x="1916.0" y="180.0"/>
      <point x="1728.0" y="180.0" type="curve" smooth="yes"/>
      <point x="1428.0" y="180.0"/>
      <point x="1280.0" y="384.0"/>
      <point x="1344.0" y="768.0" type="curve"/>
      <point x="1404.0" y="1132.0"/>
      <point x="1628.0" y="1344.0"/>
      <point x="1896.0" y="1344.0" type="curve"/>
      <point x="2152.0" y="1344.0"/>
      <point x="2284.0" y="1152.0"/>
      <point x="2240.0" y="892.0" type="curve"/>
      <point x="1284.0" y="820.0" type="line"/>
      <point x="1252.0" y="616.0" type="line"/>
      <point x="2452.0" y="708.0" type="line"/>
      <point x="2464.0" y="788.0" type="line" smooth="yes"/>
      <point x="2560.0" y="1360.0"/>
      <point x="2252.0" y="1556.0"/>
      <point x="1932.0" y="1556.0" type="curve" smooth="yes"/>
      <point x="1660.0" y="1556.0"/>
      <point x="1444.0" y="1416.0"/>
      <point x="1304.0" y="1184.0" type="curve"/>
      <point x="1140.0" y="452.0" type="line"/>
      <point x="1172.0" y="152.0"/>
      <point x="1352.0" y="-32.0"/>
      <point x="1692.0" y="-32.0" type="curve"/>
      <point x="2004.0" y="-32.0"/>
      <point x="2256.0" y="124.0"/>
    </contour>
  </outline>
</glyph>
<glyph name="lslash" format="2">
  <advance width="668.0"/>
  <unicode hex="0142"/>
  <anchor x="264.0" y="16.0" name="bottom"/>
  <anchor x="632.0" y="2304.0" name="top"/>
  <anchor x="1028.0" y="2336.0" name="top0315"/>
  <outline>
    <contour>
      <point x="756.0" y="1280.0" type="line"/>
      <point x="40.0" y="1024.0" type="line"/>
      <point x="8.0" y="848.0" type="line"/>
      <point x="728.0" y="1104.0" type="line"/>
    </contour>
    <contour>
      <point x="664.0" y="2048.0" type="line"/>
      <point x="428.0" y="2048.0" type="line"/>
      <point x="88.0" y="0.0" type="line"/>
      <point x="324.0" y="0.0" type="line"/>
    </contour>
  </outline>
</glyph>
<glyph name="Ohorn" format="2">
  <advance width="2180.0"/>
  <unicode hex="01A0"/>
  <outline>
    <contour>
      <point x="1904.0" y="2196.0" type="line"/>
      <point x="1904.0" y="1964.0"/>
      <point x="1812.0" y="1828.0"/>
      <point x="1604.0" y="1828.0" type="curve"/>
      <point x="1604.0" y="1632.0" type="line"/>
      <point x="1960.0" y="1632.0"/>
      <point x="2140.0" y="1836.0"/>
      <point x="2140.0" y="2196.0" type="curve"/>
    </contour>
    <component base="O"/>
  </outline>
</glyph>
<glyph name="tonetwo" format="2">
  <advance width="1520.0"/>
  <unicode hex="01A8"/>
  <outline>
    <contour>
      <point x="380.0" y="396.0" type="curve" smooth="yes"/>
      <point x="400.0" y="520.0"/>
      <point x="472.0" y="588.0"/>
      <point x="748.0" y="644.0" type="curve" smooth="yes"/>
      <point x="1068.0" y="708.0"/>
      <point x="1316.0" y="824.0"/>
      <point x="1360.0" y="1076.0" type="curve"/>
      <point x="1400.0" y="1312.0"/>
      <point x="1212.0" y="1516.0"/>
      <point x="876.0" y="1516.0" type="curve" smooth="yes"/>
      <point x="516.0" y="1516.0"/>
      <point x="268.0" y="1304.0"/>
      <point x="228.0" y="1048.0" type="curve"/>
      <point x="504.0" y="1048.0" type="line"/>
      <point x="520.0" y="1164.0"/>
      <point x="648.0" y="1296.0"/>
      <point x="840.0" y="1296.0" type="curve" smooth="yes"/>
      <point x="1040.0" y="1296.0"/>
      <point x="1100.0" y="1188.0"/>
      <point x="1084.0" y="1084.0" type="curve"/>
      <point x="1068.0" y="976.0"/>
      <point x="996.0" y="924.0"/>
      <point x="716.0" y="864.0" type="curve" smooth="yes"/>
      <point x="336.0" y="780.0"/>
      <point x="148.0" y="660.0"/>
      <point x="108.0" y="420.0" type="curve"/>
      <point x="64.0" y="156.0"/>
      <point x="264.0" y="-28.0"/>
      <point x="612.0" y="-28.0" type="curve" smooth="yes"/>
      <point x="1012.0" y="-28.0"/>
      <point x="1268.0" y="216.0"/>
      <point x="1312.0" y="468.0" type="curve"/>
      <point x="1036.0" y="468.0" type="line"/>
      <point x="988.0" y="260.0"/>
      <point x="800.0" y="192.0"/>
      <point x="648.0" y="192.0" type="curve" smooth="yes"/>
      <point x="448.0" y="192.0"/>
      <point x="360.0" y="280.0"/>
    </contour>
  </outline>
</glyph>
<glyph name="tpalatalhook" format="2">
  <advance width="1008.0"/>
  <unicode hex="01AB"/>
  <outline>
    <contour>
      <point x="556.0" y="184.0" type="line"/>
      <point x="496.0" y="-164.0" type="line" smooth="yes"/>
      <point x="472.0" y="-324.0"/>
      <point x="368.0" y="-372.0"/>
      <point x="240.0" y="-372.0" type="curve" smooth="yes"/>
      <point x="212.0" y="-372.0"/>
      <point x="184.0" y="-368.0"/>
      <point x="164.0" y="-364.0" type="curve"/>
      <point x="132.0" y="-564.0" type="line"/>
      <point x="164.0" y="-576.0"/>
      <point x="216.0" y="-576.0"/>
      <point x="264.0" y="-576.0" type="curve" smooth="yes"/>
      <point x="488.0" y="-576.0"/>
      <point x="692.0" y="-428.0"/>
      <point x="732.0" y="-164.0" type="curve" smooth="yes"/>
      <point x="800.0" y="232.0" type="line"/>
    </contour>
    <contour>
      <point x="988.0" y="1536.0" type="line"/>
      <point x="192.0" y="1536.0" type="line"/>
      <point x="156.0" y="1316.0" type="line"/>
      <point x="952.0" y="1316.0" type="line"/>
    </contour>
    <contour>
      <point x="476.0" y="1864.0" type="line"/>
      <point x="232.0" y="376.0" type="line"/>
      <point x="188.0" y="108.0"/>
      <point x="380.0" y="-20.0"/>
      <point x="580.0" y="-20.0" type="curve" smooth="yes"/>
      <point x="668.0" y="-20.0"/>
      <point x="728.0" y="-4.0"/>
      <point x="764.0" y="8.0" type="curve"/>
      <point x="748.0" y="220.0" type="line"/>
      <point x="728.0" y="216.0"/>
      <point x="696.0" y="208.0"/>
      <point x="644.0" y="208.0" type="curve" smooth="yes"/>
      <point x="540.0" y="208.0"/>
      <point x="444.0" y="240.0"/>
      <point x="476.0" y="440.0" type="curve"/>
      <point x="712.0" y="1864.0" type="line"/>
    </contour>
  </outline>
</glyph>
<glyph name="Trthook" format="2">
  <advance width="1808.0"/>
  <unicode hex="01AE"/>
  <outline>
    <contour>
      <point x="908.0" y="32.0" type="line"/>
      <point x="660.0" y="32.0" type="line"/>
      <point x="624.0" y="-168.0" type="line" smooth="yes"/>
      <point x="580.0" y="-432.0"/>
      <point x="760.0" y="-576.0"/>
      <point x="984.0" y="-576.0" type="curve"/>
      <point x="1120.0" y="-576.0" type="line"/>
      <point x="1156.0" y="-356.0" type="line"/>
      <point x="1080.0" y="-356.0" type="line"/>
      <point x="952.0" y="-356.0"/>
      <point x="848.0" y="-324.0"/>
      <point x="872.0" y="-164.0" type="curve" smooth="yes"/>
    </contour>
    <contour>
      <point x="1240.0" y="2048.0" type="line"/>
      <point x="992.0" y="2048.0" type="line"/>
      <point x="652.0" y="0.0" type="line"/>
      <point x="900.0" y="0.0" type="line"/>
    </contour>
    <contour>
      <point x="1884.0" y="2048.0" type="line"/>
      <point x="348.0" y="2048.0" type="line"/>
      <point x="312.0" y="1828.0" type="line"/>
      <point x="1848.0" y="1828.0" type="line"/>
    </contour>
  </outline>
</glyph>
<glyph name="jdotless" format="2">
  <advance width="668.0"/>
  <unicode hex="0237"/>
  <guideline x="820.0" y="1748.0" angle="90.0"/>
  <anchor x="524.0" y="0.0" name="_right"/>
  <anchor x="24.0" y="-632.0" name="bottom"/>
  <anchor x="456.0" y="-560.0" name="bottom_dd"/>
  <anchor x="352.0" y="892.0" name="cross"/>
  <anchor x="504.0" y="1796.0" name="top"/>
  <anchor x="844.0" y="1716.0" name="top0315"/>
  <outline>
    <contour>
      <point x="344.0" y="1536.0" type="line"/>
      <point x="72.0" y="-112.0" type="line"/>
      <point x="44.0" y="-268.0"/>
      <point x="-36.0" y="-356.0"/>
      <point x="-180.0" y="-356.0" type="curve"/>
      <point x="-224.0" y="-356.0" type="line"/>
      <point x="-260.0" y="-576.0" type="line"/>
      <point x="-212.0" y="-576.0" type="line"/>
      <point x="84.0" y="-576.0"/>
      <point x="260.0" y="-396.0"/>
      <point x="308.0" y="-112.0" type="curve"/>
      <point x="580.0" y="1536.0" type="line"/>
    </contour>
  </outline>
</glyph>
<glyph name="uni0244" format="2">
  <advance width="2088.0"/>
  <unicode hex="0244"/>
  <guideline x="1036.0" y="148.0" angle="90.0"/>
  <anchor x="1044.0" y="0.0" name="bottom"/>
  <anchor x="1044.0" y="2304.0" name="top"/>
  <anchor x="2016.0" y="2200.0" name="top0315"/>
  <outline>
    <contour>
      <point x="2096.0" y="1188.0" type="line"/>
      <point x="-8.0" y="1188.0" type="line"/>
      <point x="-8.0" y="1024.0" type="line"/>
      <point x="2096.0" y="1024.0" type="line"/>
    </contour>
    <component base="U"/>
  </outline>
</glyph>
<glyph name="uni024C" format="2">
  <advance width="1792.0"/>
  <unicode hex="024C"/>
  <anchor x="820.0" y="16.0" name="bottom"/>
  <anchor x="1180.0" y="2200.0" name="top"/>
  <anchor x="2156.0" y="2200.0" name="top0315"/>
  <outline>
    <contour>
      <point x="468.0" y="2048.0" type="line"/>
      <point x="128.0" y="0.0" type="line"/>
      <point x="376.0" y="0.0" type="line"/>
      <point x="680.0" y="1828.0" type="line"/>
      <point x="1116.0" y="1828.0" type="line" smooth="yes"/>
      <point x="1480.0" y="1828.0"/>
      <point x="1524.0" y="1612.0"/>
      <point x="1492.0" y="1420.0" type="curve" smooth="yes"/>
      <point x="1456.0" y="1192.0"/>
      <point x="1316.0" y="1024.0"/>
      <point x="956.0" y="1024.0" type="curve" smooth="yes"/>
      <point x="52.0" y="1024.0" type="line"/>
      <point x="12.0" y="796.0" type="line"/>
      <point x="1080.0" y="796.0" type="line"/>
      <point x="1160.0" y="816.0" type="line"/>
      <point x="1476.0" y="896.0"/>
      <point x="1684.0" y="1100.0"/>
      <point x="1736.0" y="1420.0" type="curve" smooth="yes"/>
      <point x="1792.0" y="1760.0"/>
      <point x="1640.0" y="2048.0"/>
      <point x="1152.0" y="2048.0" type="curve"/>
    </contour>
    <contour>
      <point x="1284.0" y="0.0" type="line"/>
      <point x="1572.0" y="0.0" type="line"/>
      <point x="1252.0" y="900.0" type="line"/>
      <point x="972.0" y="900.0" type="line"/>
    </contour>
  </outline>
</glyph>
<glyph name="uni024F" format="2">
  <advance width="1520.0"/>
  <unicode hex="024F"/>
  <anchor x="772.0" y="-216.0" name="bottom"/>
  <anchor x="824.0" y="1776.0" name="top"/>
  <anchor x="1568.0" y="1776.0" name="top0315"/>
  <outline>
    <contour>
      <point x="1492.0" y="1096.0" type="line"/>
      <point x="148.0" y="1096.0" type="line"/>
      <point x="116.0" y="912.0" type="line"/>
      <point x="1460.0" y="912.0" type="line"/>
    </contour>
    <contour>
      <point x="460.0" y="-152.0" type="line" smooth="yes"/>
      <point x="332.0" y="-380.0"/>
      <point x="224.0" y="-404.0"/>
      <point x="60.0" y="-360.0" type="curve"/>
      <point x="-32.0" y="-568.0" type="line"/>
      <point x="-12.0" y="-580.0"/>
      <point x="56.0" y="-596.0"/>
      <point x="136.0" y="-596.0" type="curve" smooth="yes"/>
      <point x="348.0" y="-596.0"/>
      <point x="516.0" y="-484.0"/>
      <point x="644.0" y="-248.0" type="curve" smooth="yes"/>
      <point x="1600.0" y="1536.0" type="line"/>
      <point x="1344.0" y="1536.0" type="line"/>
      <point x="652.0" y="184.0" type="line"/>
      <point x="552.0" y="16.0" type="line"/>
    </contour>
    <contour>
      <point x="480.0" y="1536.0" type="line"/>
      <point x="224.0" y="1536.0" type="line"/>
      <point x="544.0" y="-48.0" type="line"/>
      <point x="748.0" y="56.0" type="line"/>
    </contour>
    <contour>
      <point x="676.0" y="260.0" type="line"/>
      <point x="724.0" y="260.0" type="line"/>
      <point x="732.0" y="312.0" type="line"/>
      <point x="684.0" y="312.0" type="line"/>
    </contour>
  </outline>
</glyph>
<glyph name="drthook" format="2">
  <advance width="1724.0"/>
  <unicode hex="0256"/>
  <anchor x="632.0" y="-616.0" name="bottom"/>
  <anchor x="1016.0" y="2200.0" name="top"/>
  <anchor x="1908.0" y="2200.0" name="top0315"/>
  <outline>
    <contour>
      <point x="1420.0" y="292.0" type="line"/>
      <point x="1184.0" y="292.0" type="line"/>
      <point x="1108.0" y="-164.0" type="line" smooth="yes"/>
      <point x="1068.0" y="-428.0"/>
      <point x="1216.0" y="-576.0"/>
      <point x="1440.0" y="-576.0" type="curve" smooth="yes"/>
      <point x="1488.0" y="-576.0"/>
      <point x="1540.0" y="-576.0"/>
      <point x="1580.0" y="-564.0" type="curve"/>
      <point x="1612.0" y="-364.0" type="line"/>
      <point x="1592.0" y="-368.0"/>
      <point x="1564.0" y="-372.0"/>
      <point x="1536.0" y="-372.0" type="curve" smooth="yes"/>
      <point x="1408.0" y="-372.0"/>
      <point x="1320.0" y="-324.0"/>
      <point x="1344.0" y="-164.0" type="curve" smooth="yes"/>
    </contour>
    <contour>
      <point x="1448.0" y="1292.0" type="line"/>
      <point x="1336.0" y="1292.0" type="line"/>
      <point x="1296.0" y="1372.0"/>
      <point x="1232.0" y="1556.0"/>
      <point x="932.0" y="1556.0" type="curve" smooth="yes"/>
      <point x="544.0" y="1556.0"/>
      <point x="224.0" y="1248.0"/>
      <point x="144.0" y="764.0" type="curve" smooth="yes"/>
      <point x="64.0" y="276.0"/>
      <point x="280.0" y="-32.0"/>
      <point x="664.0" y="-32.0" type="curve" smooth="yes"/>
      <point x="960.0" y="-32.0"/>
      <point x="1096.0" y="152.0"/>
      <point x="1160.0" y="236.0" type="curve"/>
      <point x="1272.0" y="236.0" type="line"/>
    </contour>
    <contour>
      <point x="380.0" y="768.0" type="curve" smooth="yes"/>
      <point x="432.0" y="1092.0"/>
      <point x="624.0" y="1344.0"/>
      <point x="924.0" y="1344.0" type="curve" smooth="yes"/>
      <point x="1212.0" y="1344.0"/>
      <point x="1324.0" y="1112.0"/>
      <point x="1268.0" y="768.0" type="curve" smooth="yes"/>
      <point x="1212.0" y="420.0"/>
      <point x="1016.0" y="180.0"/>
      <point x="732.0" y="180.0" type="curve" smooth="yes"/>
      <point x="436.0" y="180.0"/>
      <point x="324.0" y="440.0"/>
    </contour>
    <contour>
      <point x="1372.0" y="0.0" type="line"/>
      <point x="1712.0" y="2048.0" type="line"/>
      <point x="1476.0" y="2048.0" type="line"/>
      <point x="1328.0" y="1156.0" type="line"/>
      <point x="1332.0" y="748.0" type="line"/>
      <point x="1200.0" y="344.0" type="line"/>
      <point x="1144.0" y="0.0" type="line"/>
    </contour>
  </outline>
</glyph>
<glyph name="dhook" format="2">
  <advance width="1732.0"/>
  <unicode hex="0257"/>
  <anchor x="708.0" y="0.0" name="bottom"/>
  <anchor x="992.0" y="2200.0" name="top"/>
  <anchor x="1888.0" y="2200.0" name="top0315"/>
  <outline>
    <contour>
      <point x="1368.0" y="1392.0" type="line"/>
      <point x="1604.0" y="1392.0" type="line"/>
      <point x="1648.0" y="1672.0" type="line" smooth="yes"/>
      <point x="1676.0" y="1832.0"/>
      <point x="1784.0" y="1868.0"/>
      <point x="1912.0" y="1868.0" type="curve" smooth="yes"/>
      <point x="1932.0" y="1868.0"/>
      <point x="1968.0" y="1868.0"/>
      <point x="1984.0" y="1860.0" type="curve"/>
      <point x="2020.0" y="2064.0" type="line"/>
      <point x="1984.0" y="2076.0"/>
      <point x="1928.0" y="2080.0"/>
      <point x="1884.0" y="2080.0" type="curve" smooth="yes"/>
      <point x="1656.0" y="2080.0"/>
      <point x="1456.0" y="1936.0"/>
      <point x="1412.0" y="1672.0" type="curve" smooth="yes"/>
    </contour>
    <contour>
      <point x="1372.0" y="0.0" type="line"/>
      <point x="1628.0" y="1536.0" type="line"/>
      <point x="1392.0" y="1536.0" type="line"/>
      <point x="1352.0" y="1292.0" type="line"/>
      <point x="1332.0" y="1292.0" type="line"/>
      <point x="1292.0" y="1372.0"/>
      <point x="1232.0" y="1556.0"/>
      <point x="932.0" y="1556.0" type="curve" smooth="yes"/>
      <point x="544.0" y="1556.0"/>
      <point x="224.0" y="1248.0"/>
      <point x="144.0" y="764.0" type="curve" smooth="yes"/>
      <point x="64.0" y="276.0"/>
      <point x="280.0" y="-32.0"/>
      <point x="664.0" y="-32.0" type="curve" smooth="yes"/>
      <point x="960.0" y="-32.0"/>
      <point x="1092.0" y="152.0"/>
      <point x="1156.0" y="236.0" type="curve"/>
      <point x="1184.0" y="236.0" type="line"/>
      <point x="1144.0" y="0.0" type="line"/>
    </contour>
    <contour>
      <point x="380.0" y="768.0" type="curve" smooth="yes"/>
      <point x="432.0" y="1092.0"/>
      <point x="624.0" y="1344.0"/>
      <point x="924.0" y="1344.0" type="curve" smooth="yes"/>
      <point x="1212.0" y="1344.0"/>
      <point x="1324.0" y="1112.0"/>
      <point x="1268.0" y="768.0" type="curve" smooth="yes"/>
      <point x="1212.0" y="420.0"/>
      <point x="1016.0" y="180.0"/>
      <point x="732.0" y="180.0" type="curve" smooth="yes"/>
      <point x="436.0" y="180.0"/>
      <point x="324.0" y="440.0"/>
    </contour>
  </outline>
</glyph>
<glyph name="schwa" format="2">
  <advance width="1520.0"/>
  <unicode hex="0259"/>
  <anchor x="660.0" y="0.0" name="bottom"/>
  <anchor x="1236.0" y="900.0" name="rhotichook"/>
  <anchor x="1132.0" y="88.0" name="right"/>
  <anchor x="936.0" y="1776.0" name="top"/>
  <anchor x="1660.0" y="1776.0" name="top0315"/>
  <outline>
    <contour>
      <point x="828.0" y="1520.0" type="curve"/>
      <point x="556.0" y="1520.0"/>
      <point x="376.0" y="1420.0"/>
      <point x="276.0" y="1336.0" type="curve"/>
      <point x="348.0" y="1152.0" type="line"/>
      <point x="452.0" y="1232.0"/>
      <point x="596.0" y="1300.0"/>
      <point x="792.0" y="1300.0" type="curve" smooth="yes"/>
      <point x="1064.0" y="1300.0"/>
      <point x="1156.0" y="1064.0"/>
      <point x="1108.0" y="772.0" type="curve" smooth="yes"/>
      <point x="1100.0" y="716.0" type="line" smooth="yes"/>
      <point x="1052.0" y="428.0"/>
      <point x="860.0" y="196.0"/>
      <point x="652.0" y="196.0" type="curve"/>
      <point x="416.0" y="196.0"/>
      <point x="344.0" y="368.0"/>
      <point x="376.0" y="560.0" type="curve"/>
      <point x="384.0" y="596.0" type="line"/>
      <point x="1192.0" y="596.0" type="line"/>
      <point x="1228.0" y="816.0" type="line"/>
      <point x="144.0" y="816.0" type="line"/>
      <point x="116.0" y="644.0" type="line" smooth="yes"/>
      <point x="52.0" y="252.0"/>
      <point x="196.0" y="-28.0"/>
      <point x="616.0" y="-28.0" type="curve" smooth="yes"/>
      <point x="948.0" y="-28.0"/>
      <point x="1304.0" y="280.0"/>
      <point x="1376.0" y="716.0" type="curve" smooth="yes"/>
      <point x="1384.0" y="772.0" type="line" smooth="yes"/>
      <point x="1456.0" y="1208.0"/>
      <point x="1248.0" y="1520.0"/>
    </contour>
  </outline>
</glyph>
<glyph name="epsilon1revhook" format="2">
  <advance width="2032.0"/>
  <unicode hex="025D"/>
  <anchor x="584.0" y="0.0" name="bottom"/>
  <anchor x="880.0" y="1776.0" name="top"/>
  <anchor x="2140.0" y="1776.0" name="top0315"/>
  <outline>
    <contour>
      <point x="1280.0" y="1000.0" type="line"/>
      <point x="1472.0" y="1036.0" type="line"/>
      <point x="1480.0" y="852.0"/>
      <point x="1528.0" y="692.0"/>
      <point x="1756.0" y="692.0" type="curve" smooth="yes"/>
      <point x="1820.0" y="692.0"/>
      <point x="1884.0" y="708.0"/>
      <point x="1940.0" y="736.0" type="curve"/>
      <point x="1932.0" y="904.0" type="line"/>
      <point x="1912.0" y="900.0"/>
      <point x="1892.0" y="896.0"/>
      <point x="1844.0" y="896.0" type="curve" smooth="yes"/>
      <point x="1696.0" y="896.0"/>
      <point x="1688.0" y="1060.0"/>
      <point x="1692.0" y="1296.0" type="curve"/>
      <point x="1316.0" y="1224.0" type="line"/>
    </contour>
    <contour>
      <point x="452.0" y="808.0" type="line"/>
      <point x="424.0" y="652.0" type="line"/>
      <point x="712.0" y="652.0" type="line" smooth="yes"/>
      <point x="928.0" y="652.0"/>
      <point x="1028.0" y="580.0"/>
      <point x="1004.0" y="420.0" type="curve" smooth="yes"/>
      <point x="984.0" y="300.0"/>
      <point x="836.0" y="192.0"/>
      <point x="616.0" y="192.0" type="curve" smooth="yes"/>
      <point x="404.0" y="192.0"/>
      <point x="288.0" y="312.0"/>
      <point x="312.0" y="444.0" type="curve"/>
      <point x="36.0" y="444.0" type="line"/>
      <point x="-20.0" y="116.0"/>
      <point x="276.0" y="-28.0"/>
      <point x="580.0" y="-28.0" type="curve" smooth="yes"/>
      <point x="940.0" y="-28.0"/>
      <point x="1232.0" y="140.0"/>
      <point x="1280.0" y="420.0" type="curve" smooth="yes"/>
      <point x="1320.0" y="672.0"/>
      <point x="1128.0" y="808.0"/>
      <point x="760.0" y="808.0" type="curve"/>
    </contour>
    <contour>
      <point x="744.0" y="712.0" type="line"/>
      <point x="1080.0" y="712.0"/>
      <point x="1328.0" y="876.0"/>
      <point x="1364.0" y="1080.0" type="curve"/>
      <point x="1412.0" y="1364.0"/>
      <point x="1196.0" y="1516.0"/>
      <point x="836.0" y="1516.0" type="curve" smooth="yes"/>
      <point x="512.0" y="1516.0"/>
      <point x="212.0" y="1344.0"/>
      <point x="168.0" y="1072.0" type="curve"/>
      <point x="440.0" y="1072.0" type="line"/>
      <point x="460.0" y="1196.0"/>
      <point x="620.0" y="1296.0"/>
      <point x="800.0" y="1296.0" type="curve" smooth="yes"/>
      <point x="1024.0" y="1296.0"/>
      <point x="1104.0" y="1188.0"/>
      <point x="1088.0" y="1080.0" type="curve"/>
      <point x="1068.0" y="956.0"/>
      <point x="964.0" y="868.0"/>
      <point x="748.0" y="868.0" type="curve" smooth="yes"/>
      <point x="460.0" y="868.0" type="line"/>
      <point x="436.0" y="712.0" type="line"/>
    </contour>
  </outline>
</glyph>
<glyph name="epsilon1revclosed" format="2">
  <advance width="1520.0"/>
  <unicode hex="025E"/>
  <anchor x="652.0" y="0.0" name="bottom"/>
  <anchor x="1084.0" y="876.0" name="rhotichook"/>
  <anchor x="948.0" y="1776.0" name="top"/>
  <anchor x="1668.0" y="1776.0" name="top0315"/>
  <outline>
    <contour>
      <point x="812.0" y="712.0" type="line"/>
      <point x="1132.0" y="712.0"/>
      <point x="1352.0" y="876.0"/>
      <point x="1388.0" y="1080.0" type="curve"/>
      <point x="1436.0" y="1364.0"/>
      <point x="1252.0" y="1516.0"/>
      <point x="904.0" y="1516.0" type="curve" smooth="yes"/>
      <point x="592.0" y="1516.0"/>
      <point x="252.0" y="1352.0"/>
      <point x="156.0" y="764.0" type="curve"/>
      <point x="428.0" y="764.0" type="line"/>
      <point x="492.0" y="1164.0"/>
      <point x="676.0" y="1296.0"/>
      <point x="868.0" y="1296.0" type="curve" smooth="yes"/>
      <point x="1072.0" y="1296.0"/>
      <point x="1132.0" y="1188.0"/>
      <point x="1116.0" y="1080.0" type="curve"/>
      <point x="1096.0" y="956.0"/>
      <point x="1012.0" y="872.0"/>
      <point x="816.0" y="872.0" type="curve" smooth="yes"/>
      <point x="664.0" y="872.0" type="line"/>
      <point x="640.0" y="712.0" type="line"/>
    </contour>
    <contour>
      <point x="656.0" y="808.0" type="line"/>
      <point x="628.0" y="648.0" type="line"/>
      <point x="780.0" y="648.0" type="line" smooth="yes"/>
      <point x="976.0" y="648.0"/>
      <point x="1056.0" y="580.0"/>
      <point x="1032.0" y="420.0" type="curve" smooth="yes"/>
      <point x="1012.0" y="300.0"/>
      <point x="888.0" y="188.0"/>
      <point x="684.0" y="188.0" type="curve" smooth="yes"/>
      <point x="464.0" y="188.0"/>
      <point x="360.0" y="360.0"/>
      <point x="428.0" y="768.0" type="curve"/>
      <point x="156.0" y="768.0" type="line"/>
      <point x="48.0" y="124.0"/>
      <point x="356.0" y="-28.0"/>
      <point x="648.0" y="-28.0" type="curve" smooth="yes"/>
      <point x="996.0" y="-28.0"/>
      <point x="1260.0" y="140.0"/>
      <point x="1308.0" y="420.0" type="curve" smooth="yes"/>
      <point x="1348.0" y="672.0"/>
      <point x="1180.0" y="808.0"/>
      <point x="828.0" y="808.0" type="curve" smooth="yes"/>
    </contour>
  </outline>
</glyph>
<glyph name="henghook" format="2">
  <advance width="1636.0"/>
  <unicode hex="0267"/>
  <anchor x="536.0" y="-616.0" name="bottom"/>
  <anchor x="1100.0" y="2340.0" name="top"/>
  <anchor x="1792.0" y="2340.0" name="top0315"/>
  <outline>
    <contour>
      <point x="568.0" y="1464.0" type="line"/>
      <point x="600.0" y="1664.0" type="line" smooth="yes"/>
      <point x="628.0" y="1824.0"/>
      <point x="732.0" y="1872.0"/>
      <point x="860.0" y="1872.0" type="curve" smooth="yes"/>
      <point x="888.0" y="1872.0"/>
      <point x="916.0" y="1868.0"/>
      <point x="932.0" y="1864.0" type="curve"/>
      <point x="968.0" y="2064.0" type="line"/>
      <point x="932.0" y="2076.0"/>
      <point x="880.0" y="2076.0"/>
      <point x="832.0" y="2076.0" type="curve" smooth="yes"/>
      <point x="608.0" y="2076.0"/>
      <point x="408.0" y="1928.0"/>
      <point x="364.0" y="1664.0" type="curve" smooth="yes"/>
      <point x="332.0" y="1464.0" type="line"/>
    </contour>
    <contour>
      <point x="480.0" y="928.0" type="line" smooth="yes"/>
      <point x="528.0" y="1216.0"/>
      <point x="752.0" y="1328.0"/>
      <point x="940.0" y="1328.0" type="curve" smooth="yes"/>
      <point x="1144.0" y="1328.0"/>
      <point x="1256.0" y="1200.0"/>
      <point x="1220.0" y="976.0" type="curve" smooth="yes"/>
      <point x="1056.0" y="0.0" type="line"/>
      <point x="1292.0" y="0.0" type="line"/>
      <point x="1456.0" y="976.0" type="line" smooth="yes"/>
      <point x="1516.0" y="1356.0"/>
      <point x="1344.0" y="1556.0"/>
      <point x="1056.0" y="1556.0" type="curve" smooth="yes"/>
      <point x="824.0" y="1556.0"/>
      <point x="656.0" y="1436.0"/>
      <point x="560.0" y="1320.0" type="curve"/>
      <point x="544.0" y="1320.0" type="line"/>
      <point x="580.0" y="1536.0" type="line"/>
      <point x="344.0" y="1536.0" type="line"/>
      <point x="88.0" y="0.0" type="line"/>
      <point x="324.0" y="0.0" type="line"/>
    </contour>
    <contour>
      <point x="1064.0" y="36.0" type="line"/>
      <point x="1028.0" y="-164.0" type="line" smooth="yes"/>
      <point x="1004.0" y="-324.0"/>
      <point x="900.0" y="-372.0"/>
      <point x="772.0" y="-372.0" type="curve" smooth="yes"/>
      <point x="744.0" y="-372.0"/>
      <point x="716.0" y="-368.0"/>
      <point x="696.0" y="-364.0" type="curve"/>
      <point x="664.0" y="-564.0" type="line"/>
      <point x="696.0" y="-576.0"/>
      <point x="748.0" y="-576.0"/>
      <point x="796.0" y="-576.0" type="curve" smooth="yes"/>
      <point x="1020.0" y="-576.0"/>
      <point x="1224.0" y="-428.0"/>
      <point x="1264.0" y="-164.0" type="curve" smooth="yes"/>
      <point x="1300.0" y="36.0" type="line"/>
    </contour>
  </outline>
</glyph>
<glyph name="rturnrthook" format="2">
  <advance width="1116.0"/>
  <unicode hex="027B"/>
  <anchor x="216.0" y="-616.0" name="bottom"/>
  <anchor x="612.0" y="1776.0" name="top"/>
  <anchor x="1324.0" y="1776.0" name="top0315"/>
  <outline>
    <contour>
      <point x="564.0" y="336.0" type="line"/>
      <point x="476.0" y="-192.0" type="line" smooth="yes"/>
      <point x="432.0" y="-456.0"/>
      <point x="584.0" y="-600.0"/>
      <point x="808.0" y="-600.0" type="curve" smooth="yes"/>
      <point x="852.0" y="-600.0"/>
      <point x="912.0" y="-596.0"/>
      <point x="948.0" y="-584.0" type="curve"/>
      <point x="980.0" y="-400.0" type="line"/>
      <point x="956.0" y="-408.0"/>
      <point x="920.0" y="-408.0"/>
      <point x="900.0" y="-408.0" type="curve" smooth="yes"/>
      <point x="772.0" y="-408.0"/>
      <point x="688.0" y="-352.0"/>
      <point x="712.0" y="-192.0" type="curve" smooth="yes"/>
      <point x="800.0" y="336.0" type="line"/>
    </contour>
    <contour>
      <point x="-120.0" y="-16.0" type="line"/>
      <point x="-80.0" y="-44.0"/>
      <point x="-8.0" y="-72.0"/>
      <point x="72.0" y="-72.0" type="curve"/>
      <point x="252.0" y="-72.0"/>
      <point x="444.0" y="68.0"/>
      <point x="512.0" y="216.0" type="curve"/>
      <point x="528.0" y="216.0" type="line"/>
      <point x="484.0" y="-48.0" type="line"/>
      <point x="720.0" y="-48.0" type="line"/>
      <point x="976.0" y="1488.0" type="line"/>
      <point x="740.0" y="1488.0" type="line"/>
      <point x="596.0" y="620.0" type="line"/>
      <point x="556.0" y="412.0"/>
      <point x="372.0" y="172.0"/>
      <point x="120.0" y="172.0" type="curve"/>
      <point x="52.0" y="172.0"/>
      <point x="16.0" y="192.0"/>
      <point x="-4.0" y="204.0" type="curve"/>
    </contour>
  </outline>
</glyph>
<glyph name="Lsmallcap" format="2">
  <advance width="1264.0"/>
  <unicode hex="029F"/>
  <anchor x="568.0" y="0.0" name="bottom"/>
  <anchor x="448.0" y="1776.0" name="top"/>
  <anchor x="1356.0" y="1776.0" name="top0315"/>
  <outline>
    <contour>
      <point x="1040.0" y="216.0" type="line"/>
      <point x="256.0" y="216.0" type="line"/>
      <point x="220.0" y="0.0" type="line"/>
      <point x="1004.0" y="0.0" type="line"/>
    </contour>
    <contour>
      <point x="532.0" y="1488.0" type="line"/>
      <point x="256.0" y="1488.0" type="line"/>
      <point x="8.0" y="0.0" type="line"/>
      <point x="284.0" y="0.0" type="line"/>
    </contour>
  </outline>
</glyph>
<glyph name="ysuper" format="2">
  <advance width="1264.0"/>
  <unicode hex="02B8"/>
  <outline>
    <contour>
      <point x="600.0" y="1016.0" type="line"/>
      <point x="496.0" y="808.0" type="line" smooth="yes"/>
      <point x="456.0" y="732.0"/>
      <point x="420.0" y="660.0"/>
      <point x="312.0" y="660.0" type="curve" smooth="yes"/>
      <point x="272.0" y="660.0"/>
      <point x="240.0" y="660.0"/>
      <point x="232.0" y="664.0" type="curve"/>
      <point x="200.0" y="468.0" type="line"/>
      <point x="224.0" y="460.0"/>
      <point x="268.0" y="452.0"/>
      <point x="316.0" y="452.0" type="curve" smooth="yes"/>
      <point x="500.0" y="452.0"/>
      <point x="628.0" y="596.0"/>
      <point x="692.0" y="728.0" type="curve" smooth="yes"/>
      <point x="1340.0" y="1996.0" type="line"/>
      <point x="1072.0" y="1996.0" type="line"/>
    </contour>
    <contour>
      <point x="616.0" y="1996.0" type="line"/>
      <point x="332.0" y="1996.0" type="line"/>
      <point x="544.0" y="872.0" type="line"/>
      <point x="756.0" y="944.0" type="line"/>
      <point x="728.0" y="1240.0" type="line"/>
    </contour>
  </outline>
</glyph>
<glyph name="caron" format="2">
  <advance width="1296.0"/>
  <unicode hex="02C7"/>
  <anchor x="808.0" y="1724.0" name="_top"/>
  <anchor x="864.0" y="2180.0" name="mkmktop_acc"/>
  <outline>
    <contour>
      <point x="620.0" y="2048.0" type="line"/>
      <point x="428.0" y="2048.0" type="line"/>
      <point x="424.0" y="2032.0" type="line"/>
      <point x="728.0" y="1656.0" type="line"/>
      <point x="864.0" y="1656.0" type="line"/>
      <point x="1292.0" y="2032.0" type="line"/>
      <point x="1296.0" y="2048.0" type="line"/>
      <point x="1104.0" y="2048.0" type="line"/>
      <point x="820.0" y="1808.0" type="line"/>
    </contour>
  </outline>
</glyph>
<glyph name="tilde" format="2">
  <advance width="1264.0"/>
  <unicode hex="02DC"/>
  <anchor x="800.0" y="1792.0" name="_top"/>
  <anchor x="872.0" y="2208.0" name="mkmktop_acc"/>
  <outline>
    <contour>
      <point x="480.0" y="1720.0" type="line"/>
      <point x="496.0" y="1804.0"/>
      <point x="564.0" y="1872.0"/>
      <point x="640.0" y="1872.0" type="curve" smooth="yes"/>
      <point x="792.0" y="1872.0"/>
      <point x="796.0" y="1744.0"/>
      <point x="980.0" y="1744.0" type="curve" smooth="yes"/>
      <point x="1152.0" y="1744.0"/>
      <point x="1308.0" y="1876.0"/>
      <point x="1340.0" y="2084.0" type="curve"/>
      <point x="1164.0" y="2100.0" type="line"/>
      <point x="1152.0" y="2016.0"/>
      <point x="1080.0" y="1948.0"/>
      <point x="1004.0" y="1948.0" type="curve" smooth="yes"/>
      <point x="860.0" y="1948.0"/>
      <point x="812.0" y="2076.0"/>
      <point x="660.0" y="2076.0" type="curve" smooth="yes"/>
      <point x="488.0" y="2076.0"/>
      <point x="332.0" y="1932.0"/>
      <point x="300.0" y="1728.0" type="curve"/>
    </contour>
  </outline>
</glyph>
<glyph name="hungarumlaut" format="2">
  <advance width="1040.0"/>
  <unicode hex="02DD"/>
  <anchor x="652.0" y="1776.0" name="_top"/>
  <anchor x="724.0" y="2228.0" name="mkmktop_acc"/>
  <outline>
    <contour>
      <point x="696.0" y="1688.0" type="line"/>
      <point x="904.0" y="1688.0" type="line"/>
      <point x="1340.0" y="2112.0" type="line"/>
      <point x="1076.0" y="2112.0" type="line"/>
    </contour>
    <contour>
      <point x="284.0" y="1688.0" type="line"/>
      <point x="472.0" y="1688.0" type="line"/>
      <point x="840.0" y="2112.0" type="line"/>
      <point x="580.0" y="2112.0" type="line"/>
    </contour>
  </outline>
</glyph>
<glyph name="xsuper" format="2">
  <advance width="1264.0"/>
  <unicode hex="02E3"/>
  <outline>
    <contour>
      <point x="632.0" y="1996.0" type="line"/>
      <point x="340.0" y="1996.0" type="line"/>
      <point x="580.0" y="1452.0" type="line"/>
      <point x="148.0" y="896.0" type="line"/>
      <point x="440.0" y="896.0" type="line"/>
      <point x="716.0" y="1280.0" type="line"/>
      <point x="868.0" y="896.0" type="line"/>
      <point x="1160.0" y="896.0" type="line"/>
      <point x="912.0" y="1452.0" type="line"/>
      <point x="1332.0" y="1996.0" type="line"/>
      <point x="1040.0" y="1996.0" type="line"/>
      <point x="768.0" y="1624.0" type="line"/>
    </contour>
  </outline>
</glyph>
<glyph name="commaturnsupnosp" format="2">
  <unicode hex="0312"/>
  <anchor x="-696.0" y="1464.0" name="_marktop"/>
  <anchor x="-556.0" y="2316.0" name="mkmktop"/>
  <anchor x="-580.0" y="1748.0" name="parent_top"/>
  <outline>
    <contour>
      <point x="-852.0" y="1356.0" type="line"/>
      <point x="-580.0" y="1356.0" type="line"/>
      <point x="-536.0" y="1612.0" type="line" smooth="yes"/>
      <point x="-508.0" y="1772.0"/>
      <point x="-440.0" y="1908.0"/>
      <point x="-332.0" y="2040.0" type="curve"/>
      <point x="-472.0" y="2144.0" type="line"/>
      <point x="-652.0" y="2008.0"/>
      <point x="-780.0" y="1788.0"/>
      <point x="-808.0" y="1608.0" type="curve" smooth="yes"/>
    </contour>
  </outline>
</glyph>
<glyph name="anglesupnosp" format="2">
  <unicode hex="031A"/>
  <anchor x="-392.0" y="1736.0" name="_marktop"/>
  <anchor x="-292.0" y="2340.0" name="mkmktop"/>
  <outline>
    <contour>
      <point x="-796.0" y="2112.0" type="line"/>
      <point x="-40.0" y="2112.0" type="line"/>
      <point x="-12.0" y="2280.0" type="line"/>
      <point x="-768.0" y="2280.0" type="line"/>
    </contour>
    <contour>
      <point x="-128.0" y="1764.0" type="line"/>
      <point x="80.0" y="1764.0" type="line"/>
      <point x="168.0" y="2280.0" type="line"/>
      <point x="-40.0" y="2280.0" type="line"/>
    </contour>
  </outline>
</glyph>
<glyph name="commabelowcmb" format="2">
  <unicode hex="0326"/>
  <anchor x="-900.0" y="0.0" name="_markbottom"/>
  <anchor x="-1024.0" y="-764.0" name="mkmkbottom_acc"/>
  <outline>
    <contour>
      <point x="-780.0" y="-200.0" type="line"/>
      <point x="-1040.0" y="-200.0" type="line"/>
      <point x="-1060.0" y="-316.0" type="line" smooth="yes"/>
      <point x="-1080.0" y="-444.0"/>
      <point x="-1136.0" y="-552.0"/>
      <point x="-1220.0" y="-656.0" type="curve"/>
      <point x="-1080.0" y="-764.0" type="line"/>
      <point x="-924.0" y="-648.0"/>
      <point x="-824.0" y="-456.0"/>
      <point x="-800.0" y="-308.0" type="curve" smooth="yes"/>
    </contour>
  </outline>
</glyph>
<glyph name="uni0346" format="2">
  <unicode hex="0346"/>
  <anchor x="-656.0" y="1664.0" name="_marktop"/>
  <anchor x="-540.0" y="2356.0" name="mkmktop"/>
  <outline>
    <contour>
      <point x="-316.0" y="2052.0" type="line"/>
      <point x="-884.0" y="2052.0" type="line"/>
      <point x="-856.0" y="2220.0" type="line"/>
      <point x="-288.0" y="2220.0" type="line"/>
    </contour>
    <contour>
      <point x="-916.0" y="1692.0" type="line"/>
      <point x="-1124.0" y="1692.0" type="line"/>
      <point x="-1036.0" y="2220.0" type="line"/>
      <point x="-828.0" y="2220.0" type="line"/>
    </contour>
    <contour>
      <point x="-188.0" y="1692.0" type="line"/>
      <point x="-396.0" y="1692.0" type="line"/>
      <point x="-308.0" y="2220.0" type="line"/>
      <point x="-100.0" y="2220.0" type="line"/>
    </contour>
  </outline>
</glyph>
<glyph name="uni035B" format="2">
  <unicode hex="035B"/>
  <anchor x="-672.0" y="1680.0" name="_marktop"/>
  <anchor x="-556.0" y="2396.0" name="mkmktop"/>
  <outline>
    <contour>
      <point x="-644.0" y="2284.0" type="line"/>
      <point x="-848.0" y="1872.0" type="line"/>
      <point x="-556.0" y="1872.0" type="line"/>
      <point x="-684.0" y="1624.0" type="line"/>
      <point x="-516.0" y="1624.0" type="line"/>
      <point x="-312.0" y="2036.0" type="line"/>
      <point x="-604.0" y="2036.0" type="line"/>
      <point x="-476.0" y="2284.0" type="line"/>
    </contour>
  </outline>
</glyph>
<glyph name="Gamma" format="2">
  <advance width="1776.0"/>
  <unicode hex="0393"/>
  <anchor x="444.0" y="1056.0" name="cross"/>
  <anchor x="520.0" y="88.0" name="cyrtic"/>
  <anchor x="376.0" y="0.0" name="right"/>
  <anchor x="1148.0" y="2304.0" name="top"/>
  <anchor x="1840.0" y="2216.0" name="top0315"/>
  <outline>
    <contour>
      <point x="1720.0" y="2048.0" type="line"/>
      <point x="484.0" y="2048.0" type="line"/>
      <point x="144.0" y="0.0" type="line"/>
      <point x="392.0" y="0.0" type="line"/>
      <point x="696.0" y="1828.0" type="line"/>
      <point x="1684.0" y="1828.0" type="line"/>
    </contour>
  </outline>
</glyph>
<glyph name="afii10021" format="2">
  <advance width="2288.0"/>
  <unicode hex="0414"/>
  <outline>
    <contour>
      <point x="1804.0" y="228.0" type="line"/>
      <point x="300.0" y="228.0" type="line"/>
      <point x="260.0" y="0.0" type="line"/>
      <point x="1764.0" y="0.0" type="line"/>
    </contour>
    <contour>
      <point x="344.0" y="228.0" type="line"/>
      <point x="60.0" y="228.0" type="line"/>
      <point x="-60.0" y="-496.0" type="line"/>
      <point x="224.0" y="-496.0" type="line"/>
    </contour>
    <contour>
      <point x="2052.0" y="228.0" type="line"/>
      <point x="1768.0" y="228.0" type="line"/>
      <point x="1648.0" y="-492.0" type="line"/>
      <point x="1932.0" y="-492.0" type="line"/>
    </contour>
    <contour>
      <point x="1824.0" y="2004.0" type="line"/>
      <point x="956.0" y="2004.0" type="line"/>
      <point x="920.0" y="1772.0" type="line"/>
      <point x="1788.0" y="1772.0" type="line"/>
    </contour>
    <contour>
      <point x="2072.0" y="2004.0" type="line"/>
      <point x="1788.0" y="2004.0" type="line"/>
      <point x="1456.0" y="0.0" type="line"/>
      <point x="1740.0" y="0.0" type="line"/>
    </contour>
    <contour>
      <point x="856.0" y="2004.0" type="line"/>
      <point x="676.0" y="1184.0" type="line" smooth="yes"/>
      <point x="548.0" y="596.0"/>
      <point x="340.0" y="340.0"/>
      <point x="232.0" y="228.0" type="curve"/>
      <point x="148.0" y="228.0" type="line"/>
      <point x="108.0" y="0.0" type="line"/>
      <point x="232.0" y="0.0" type="line"/>
      <point x="508.0" y="80.0"/>
      <point x="804.0" y="464.0"/>
      <point x="964.0" y="1184.0" type="curve" smooth="yes"/>
      <point x="1144.0" y="2004.0" type="line"/>
    </contour>
  </outline>
</glyph>
<glyph name="afii10041" format="2">
  <advance width="2032.0"/>
  <unicode hex="0427"/>
  <anchor x="1768.0" y="88.0" name="cyrtic"/>
  <anchor x="1356.0" y="0.0" name="left"/>
  <anchor x="1632.0" y="0.0" name="right"/>
  <anchor x="1252.0" y="2216.0" name="top"/>
  <anchor x="2248.0" y="2216.0" name="top0315"/>
  <outline>
    <contour>
      <point x="472.0" y="2004.0" type="line"/>
      <point x="368.0" y="1364.0" type="line"/>
      <point x="292.0" y="912.0"/>
      <point x="520.0" y="744.0"/>
      <point x="944.0" y="744.0" type="curve" smooth="yes"/>
      <point x="1208.0" y="744.0"/>
      <point x="1368.0" y="780.0"/>
      <point x="1560.0" y="836.0" type="curve"/>
      <point x="1596.0" y="1068.0" type="line"/>
      <point x="1404.0" y="1012.0"/>
      <point x="1204.0" y="976.0"/>
      <point x="984.0" y="976.0" type="curve" smooth="yes"/>
      <point x="720.0" y="976.0"/>
      <point x="604.0" y="1060.0"/>
      <point x="656.0" y="1364.0" type="curve" smooth="yes"/>
      <point x="760.0" y="2004.0" type="line"/>
    </contour>
    <contour>
      <point x="1684.0" y="2004.0" type="line"/>
      <point x="1352.0" y="0.0" type="line"/>
      <point x="1636.0" y="0.0" type="line"/>
      <point x="1968.0" y="2004.0" type="line"/>
    </contour>
  </outline>
</glyph>
<glyph name="vecyrillic" format="2">
  <advance width="1520.0"/>
  <unicode hex="0432"/>
  <anchor x="832.0" y="1744.0" name="top"/>
  <anchor x="1696.0" y="1744.0" name="top0315"/>
  <outline>
    <contour>
      <point x="796.0" y="648.0" type="line"/>
      <point x="904.0" y="728.0" type="line"/>
      <point x="1184.0" y="748.0"/>
      <point x="1360.0" y="896.0"/>
      <point x="1392.0" y="1080.0" type="curve"/>
      <point x="1440.0" y="1360.0"/>
      <point x="1220.0" y="1488.0"/>
      <point x="840.0" y="1488.0" type="curve"/>
      <point x="252.0" y="1488.0" type="line"/>
      <point x="4.0" y="0.0" type="line"/>
      <point x="276.0" y="0.0" type="line"/>
      <point x="488.0" y="1272.0" type="line"/>
      <point x="804.0" y="1272.0" type="line"/>
      <point x="1032.0" y="1272.0"/>
      <point x="1136.0" y="1204.0"/>
      <point x="1112.0" y="1064.0" type="curve"/>
      <point x="1092.0" y="932.0"/>
      <point x="964.0" y="864.0"/>
      <point x="736.0" y="864.0" type="curve"/>
      <point x="348.0" y="864.0" type="line"/>
      <point x="316.0" y="648.0" type="line"/>
    </contour>
    <contour>
      <point x="688.0" y="0.0" type="line"/>
      <point x="1044.0" y="0.0"/>
      <point x="1288.0" y="144.0"/>
      <point x="1336.0" y="424.0" type="curve" smooth="yes"/>
      <point x="1364.0" y="608.0"/>
      <point x="1256.0" y="764.0"/>
      <point x="1012.0" y="784.0" type="curve"/>
      <point x="928.0" y="864.0" type="line"/>
      <point x="444.0" y="864.0" type="line"/>
      <point x="408.0" y="648.0" type="line"/>
      <point x="796.0" y="648.0" type="line" smooth="yes"/>
      <point x="996.0" y="648.0"/>
      <point x="1084.0" y="568.0"/>
      <point x="1060.0" y="432.0" type="curve" smooth="yes"/>
      <point x="1036.0" y="296.0"/>
      <point x="924.0" y="216.0"/>
      <point x="724.0" y="216.0" type="curve" smooth="yes"/>
      <point x="280.0" y="216.0" type="line"/>
      <point x="104.0" y="0.0" type="line"/>
    </contour>
  </outline>
</glyph>
<glyph name="gecyrillic" format="2">
  <advance width="1268.0"/>
  <unicode hex="0433"/>
  <anchor x="336.0" y="768.0" name="cross"/>
  <anchor x="452.0" y="80.0" name="cyrtic"/>
  <anchor x="360.0" y="0.0" name="right"/>
  <anchor x="760.0" y="1744.0" name="top"/>
  <anchor x="1344.0" y="1744.0" name="top0315"/>
  <outline>
    <contour>
      <point x="1284.0" y="1488.0" type="line"/>
      <point x="336.0" y="1488.0" type="line"/>
      <point x="88.0" y="0.0" type="line"/>
      <point x="324.0" y="0.0" type="line"/>
      <point x="536.0" y="1268.0" type="line"/>
      <point x="1248.0" y="1268.0" type="line"/>
    </contour>
  </outline>
</glyph>
<glyph name="iicyrillic" format="2">
  <advance width="1520.0"/>
  <unicode hex="0438"/>
  <anchor x="1236.0" y="0.0" name="right"/>
  <anchor x="920.0" y="1744.0" name="top"/>
  <anchor x="1740.0" y="1744.0" name="top0315"/>
  <outline>
    <contour>
      <point x="376.0" y="428.0" type="line"/>
      <point x="552.0" y="1488.0" type="line"/>
      <point x="276.0" y="1488.0" type="line"/>
      <point x="28.0" y="0.0" type="line"/>
      <point x="304.0" y="0.0" type="line"/>
      <point x="1140.0" y="1064.0" type="line"/>
      <point x="964.0" y="0.0" type="line"/>
      <point x="1236.0" y="0.0" type="line"/>
      <point x="1484.0" y="1488.0" type="line"/>
      <point x="1212.0" y="1488.0" type="line"/>
    </contour>
  </outline>
</glyph>
<glyph name="kacyrillic" format="2">
  <advance width="1520.0"/>
  <unicode hex="043A"/>
  <anchor x="1300.0" y="88.0" name="cyrtic"/>
  <anchor x="1236.0" y="0.0" name="right"/>
  <anchor x="896.0" y="1744.0" name="top"/>
  <anchor x="1688.0" y="1744.0" name="top0315"/>
  <outline>
    <contour>
      <point x="600.0" y="1488.0" type="line"/>
      <point x="324.0" y="1488.0" type="line"/>
      <point x="76.0" y="0.0" type="line"/>
      <point x="352.0" y="0.0" type="line"/>
    </contour>
    <contour>
      <point x="1576.0" y="1488.0" type="line"/>
      <point x="1244.0" y="1488.0" type="line"/>
      <point x="652.0" y="864.0" type="line"/>
      <point x="360.0" y="864.0" type="line"/>
      <point x="364.0" y="628.0" type="line"/>
      <point x="724.0" y="628.0" type="line"/>
    </contour>
    <contour>
      <point x="1028.0" y="0.0" type="line"/>
      <point x="1372.0" y="0.0" type="line"/>
      <point x="816.0" y="864.0" type="line"/>
      <point x="608.0" y="668.0" type="line"/>
    </contour>
  </outline>
</glyph>
<glyph name="elcyrillic" format="2">
  <advance width="1520.0"/>
  <unicode hex="043B"/>
  <anchor x="660.0" y="16.0" name="bottom"/>
  <anchor x="1316.0" y="0.0" name="right"/>
  <anchor x="1064.0" y="1744.0" name="top"/>
  <anchor x="1816.0" y="1744.0" name="top0315"/>
  <outline>
    <contour>
      <point x="1316.0" y="1488.0" type="line"/>
      <point x="608.0" y="1488.0" type="line"/>
      <point x="572.0" y="1268.0" type="line"/>
      <point x="1280.0" y="1268.0" type="line"/>
    </contour>
    <contour>
      <point x="1564.0" y="1488.0" type="line"/>
      <point x="1288.0" y="1488.0" type="line"/>
      <point x="1040.0" y="0.0" type="line"/>
      <point x="1316.0" y="0.0" type="line"/>
    </contour>
    <contour>
      <point x="540.0" y="1488.0" type="line"/>
      <point x="408.0" y="856.0" type="line" smooth="yes"/>
      <point x="304.0" y="364.0"/>
      <point x="216.0" y="256.0"/>
      <point x="48.0" y="244.0" type="curve" smooth="yes"/>
      <point x="-8.0" y="240.0" type="line"/>
      <point x="-48.0" y="0.0" type="line"/>
      <point x="32.0" y="0.0" type="line" smooth="yes"/>
      <point x="388.0" y="0.0"/>
      <point x="540.0" y="244.0"/>
      <point x="656.0" y="768.0" type="curve" smooth="yes"/>
      <point x="816.0" y="1488.0" type="line"/>
    </contour>
  </outline>
</glyph>
<glyph name="emcyrillic" format="2">
  <advance width="2032.0"/>
  <unicode hex="043C"/>
  <anchor x="1724.0" y="0.0" name="right"/>
  <anchor x="1164.0" y="1744.0" name="top"/>
  <anchor x="2224.0" y="1744.0" name="top0315"/>
  <outline>
    <contour>
      <point x="952.0" y="360.0" type="line"/>
      <point x="656.0" y="1488.0" type="line"/>
      <point x="396.0" y="1488.0" type="line"/>
      <point x="800.0" y="0.0" type="line"/>
      <point x="988.0" y="0.0" type="line"/>
      <point x="1892.0" y="1488.0" type="line"/>
      <point x="1628.0" y="1488.0" type="line"/>
    </contour>
    <contour>
      <point x="576.0" y="1488.0" type="line"/>
      <point x="304.0" y="1488.0" type="line"/>
      <point x="56.0" y="0.0" type="line"/>
      <point x="328.0" y="0.0" type="line"/>
    </contour>
    <contour>
      <point x="1448.0" y="0.0" type="line"/>
      <point x="1724.0" y="0.0" type="line"/>
      <point x="1972.0" y="1488.0" type="line"/>
      <point x="1696.0" y="1488.0" type="line"/>
    </contour>
  </outline>
</glyph>
<glyph name="checyrillic" format="2">
  <advance width="1520.0"/>
  <unicode hex="0447"/>
  <anchor x="1356.0" y="80.0" name="cyrtic"/>
  <anchor x="948.0" y="0.0" name="left"/>
  <anchor x="1224.0" y="0.0" name="right"/>
  <anchor x="912.0" y="1744.0" name="top"/>
  <anchor x="1728.0" y="1744.0" name="top0315"/>
  <outline>
    <contour>
      <point x="1472.0" y="1488.0" type="line"/>
      <point x="1200.0" y="1488.0" type="line"/>
      <point x="952.0" y="0.0" type="line"/>
      <point x="1224.0" y="0.0" type="line"/>
    </contour>
    <contour>
      <point x="1264.0" y="804.0" type="line"/>
      <point x="1092.0" y="744.0"/>
      <point x="936.0" y="708.0"/>
      <point x="736.0" y="708.0" type="curve" smooth="yes"/>
      <point x="544.0" y="708.0"/>
      <point x="452.0" y="812.0"/>
      <point x="492.0" y="1048.0" type="curve" smooth="yes"/>
      <point x="564.0" y="1492.0" type="line"/>
      <point x="288.0" y="1492.0" type="line"/>
      <point x="216.0" y="1048.0" type="line" smooth="yes"/>
      <point x="152.0" y="672.0"/>
      <point x="348.0" y="484.0"/>
      <point x="696.0" y="484.0" type="curve" smooth="yes"/>
      <point x="904.0" y="484.0"/>
      <point x="1060.0" y="524.0"/>
      <point x="1228.0" y="584.0" type="curve"/>
    </contour>
  </outline>
</glyph>
<glyph name="shacyrillic" format="2">
  <advance width="2288.0"/>
  <unicode hex="0448"/>
  <anchor x="1296.0" y="1744.0" name="top"/>
  <anchor x="2448.0" y="1744.0" name="top0315"/>
  <outline>
    <contour>
      <point x="332.0" y="1488.0" type="line"/>
      <point x="84.0" y="0.0" type="line"/>
      <point x="1948.0" y="0.0" type="line"/>
      <point x="2196.0" y="1488.0" type="line"/>
      <point x="1920.0" y="1488.0" type="line"/>
      <point x="1708.0" y="220.0" type="line"/>
      <point x="1192.0" y="220.0" type="line"/>
      <point x="1404.0" y="1488.0" type="line"/>
      <point x="1128.0" y="1488.0" type="line"/>
      <point x="916.0" y="220.0" type="line"/>
      <point x="396.0" y="220.0" type="line"/>
      <point x="608.0" y="1488.0" type="line"/>
    </contour>
  </outline>
</glyph>
<glyph name="hardsigncyrillic" format="2">
  <advance width="1776.0"/>
  <unicode hex="044A"/>
  <outline>
    <contour>
      <point x="856.0" y="1488.0" type="line"/>
      <point x="192.0" y="1488.0" type="line"/>
      <point x="156.0" y="1268.0" type="line"/>
      <point x="820.0" y="1268.0" type="line"/>
    </contour>
    <contour>
      <point x="684.0" y="980.0" type="line"/>
      <point x="648.0" y="760.0" type="line"/>
      <point x="1088.0" y="760.0" type="line"/>
      <point x="1296.0" y="760.0"/>
      <point x="1344.0" y="612.0"/>
      <point x="1320.0" y="484.0" type="curve"/>
      <point x="1300.0" y="352.0"/>
      <point x="1204.0" y="220.0"/>
      <point x="996.0" y="220.0" type="curve"/>
      <point x="628.0" y="220.0" type="line"/>
      <point x="840.0" y="1488.0" type="line"/>
      <point x="564.0" y="1488.0" type="line"/>
      <point x="316.0" y="0.0" type="line"/>
      <point x="960.0" y="0.0" type="line"/>
      <point x="1320.0" y="0.0"/>
      <point x="1552.0" y="220.0"/>
      <point x="1600.0" y="496.0" type="curve"/>
      <point x="1644.0" y="776.0"/>
      <point x="1484.0" y="980.0"/>
      <point x="1124.0" y="980.0" type="curve"/>
    </contour>
  </outline>
</glyph>
<glyph name="fitacyrillic" format="2">
  <advance width="1680.0"/>
  <unicode hex="0473"/>
  <anchor x="944.0" y="1776.0" name="top"/>
  <anchor x="1780.0" y="1776.0" name="top0315"/>
  <outline>
    <contour>
      <point x="1388.0" y="876.0" type="line"/>
      <point x="312.0" y="876.0" type="line"/>
      <point x="276.0" y="656.0" type="line"/>
      <point x="1352.0" y="656.0" type="line"/>
    </contour>
    <contour>
      <point x="708.0" y="-32.0" type="curve" smooth="yes"/>
      <point x="1124.0" y="-32.0"/>
      <point x="1456.0" y="284.0"/>
      <point x="1536.0" y="760.0" type="curve" smooth="yes"/>
      <point x="1616.0" y="1240.0"/>
      <point x="1388.0" y="1556.0"/>
      <point x="972.0" y="1556.0" type="curve" smooth="yes"/>
      <point x="556.0" y="1556.0"/>
      <point x="224.0" y="1240.0"/>
      <point x="144.0" y="760.0" type="curve" smooth="yes"/>
      <point x="64.0" y="284.0"/>
      <point x="292.0" y="-32.0"/>
    </contour>
    <contour>
      <point x="744.0" y="180.0" type="curve" smooth="yes"/>
      <point x="428.0" y="180.0"/>
      <point x="328.0" y="452.0"/>
      <point x="380.0" y="760.0" type="curve" smooth="yes"/>
      <point x="428.0" y="1068.0"/>
      <point x="620.0" y="1344.0"/>
      <point x="936.0" y="1344.0" type="curve" smooth="yes"/>
      <point x="1252.0" y="1344.0"/>
      <point x="1348.0" y="1068.0"/>
      <point x="1300.0" y="760.0" type="curve" smooth="yes"/>
      <point x="1248.0" y="452.0"/>
      <point x="1060.0" y="180.0"/>
    </contour>
  </outline>
</glyph>
<glyph name="afii10050" format="2">
  <advance width="1776.0"/>
  <unicode hex="0490"/>
  <outline>
    <contour>
      <point x="1776.0" y="2504.0" type="line"/>
      <point x="1500.0" y="2504.0" type="line"/>
      <point x="1388.0" y="1828.0" type="line"/>
      <point x="1664.0" y="1828.0" type="line"/>
    </contour>
    <contour>
      <point x="1700.0" y="2048.0" type="line"/>
      <point x="464.0" y="2048.0" type="line"/>
      <point x="124.0" y="0.0" type="line"/>
      <point x="372.0" y="0.0" type="line"/>
      <point x="676.0" y="1828.0" type="line"/>
      <point x="1664.0" y="1828.0" type="line"/>
    </contour>
  </outline>
</glyph>
<glyph name="gheupturncyrillic" format="2">
  <advance width="1252.0"/>
  <unicode hex="0491"/>
  <outline>
    <contour>
      <point x="1340.0" y="1916.0" type="line"/>
      <point x="1104.0" y="1916.0" type="line"/>
      <point x="996.0" y="1268.0" type="line"/>
      <point x="1232.0" y="1268.0" type="line"/>
    </contour>
    <contour>
      <point x="1284.0" y="1488.0" type="line"/>
      <point x="336.0" y="1488.0" type="line"/>
      <point x="88.0" y="0.0" type="line"/>
      <point x="324.0" y="0.0" type="line"/>
      <point x="536.0" y="1268.0" type="line"/>
      <point x="1248.0" y="1268.0" type="line"/>
    </contour>
  </outline>
</glyph>
<glyph name="Haabkhasiancyrillic" format="2">
  <advance width="2288.0"/>
  <unicode hex="04A8"/>
  <anchor x="908.0" y="-16.0" name="bottom"/>
  <anchor x="1276.0" y="2224.0" name="top"/>
  <anchor x="2400.0" y="2224.0" name="top0315"/>
  <outline>
    <contour>
      <point x="1964.0" y="196.0" type="line"/>
      <point x="1404.0" y="196.0"/>
      <point x="1144.0" y="500.0"/>
      <point x="1220.0" y="964.0" type="curve"/>
      <point x="1272.0" y="1276.0" type="line" smooth="yes"/>
      <point x="1320.0" y="1572.0"/>
      <point x="1468.0" y="1792.0"/>
      <point x="1644.0" y="1792.0" type="curve"/>
      <point x="1820.0" y="1792.0"/>
      <point x="1896.0" y="1584.0"/>
      <point x="1844.0" y="1272.0" type="curve"/>
      <point x="1788.0" y="936.0" type="line" smooth="yes"/>
      <point x="1720.0" y="524.0"/>
      <point x="1416.0" y="208.0"/>
      <point x="992.0" y="208.0" type="curve" smooth="yes"/>
      <point x="640.0" y="208.0"/>
      <point x="476.0" y="520.0"/>
      <point x="544.0" y="928.0" type="curve" smooth="yes"/>
      <point x="580.0" y="1160.0" type="line" smooth="yes"/>
      <point x="640.0" y="1520.0"/>
      <point x="812.0" y="1792.0"/>
      <point x="1028.0" y="1792.0" type="curve"/>
      <point x="1068.0" y="2032.0" type="line"/>
      <point x="688.0" y="2032.0"/>
      <point x="376.0" y="1652.0"/>
      <point x="292.0" y="1156.0" type="curve" smooth="yes"/>
      <point x="256.0" y="928.0" type="line" smooth="yes"/>
      <point x="164.0" y="388.0"/>
      <point x="440.0" y="-28.0"/>
      <point x="952.0" y="-28.0" type="curve" smooth="yes"/>
      <point x="1528.0" y="-28.0"/>
      <point x="1980.0" y="392.0"/>
      <point x="2072.0" y="936.0" type="curve" smooth="yes"/>
      <point x="2128.0" y="1268.0" type="line"/>
      <point x="2200.0" y="1712.0"/>
      <point x="2024.0" y="2028.0"/>
      <point x="1684.0" y="2028.0" type="curve"/>
      <point x="1340.0" y="2028.0"/>
      <point x="1060.0" y="1700.0"/>
      <point x="988.0" y="1272.0" type="curve" smooth="yes"/>
      <point x="936.0" y="968.0" type="line"/>
      <point x="840.0" y="372.0"/>
      <point x="1236.0" y="-40.0"/>
      <point x="1928.0" y="-40.0" type="curve"/>
    </contour>
  </outline>
</glyph>
<glyph name="Shhacyrillic" format="2">
  <advance width="2032.0"/>
  <unicode hex="04BA"/>
  <anchor x="1376.0" y="0.0" name="left"/>
  <anchor x="1652.0" y="0.0" name="right"/>
  <anchor x="1272.0" y="2216.0" name="top"/>
  <anchor x="2252.0" y="2216.0" name="top0315"/>
  <outline>
    <contour>
      <point x="1636.0" y="0.0" type="line"/>
      <point x="1744.0" y="640.0" type="line"/>
      <point x="1816.0" y="1088.0"/>
      <point x="1592.0" y="1260.0"/>
      <point x="1164.0" y="1260.0" type="curve" smooth="yes"/>
      <point x="900.0" y="1260.0"/>
      <point x="740.0" y="1220.0"/>
      <point x="548.0" y="1164.0" type="curve"/>
      <point x="512.0" y="936.0" type="line"/>
      <point x="704.0" y="992.0"/>
      <point x="908.0" y="1028.0"/>
      <point x="1128.0" y="1028.0" type="curve" smooth="yes"/>
      <point x="1392.0" y="1028.0"/>
      <point x="1508.0" y="944.0"/>
      <point x="1460.0" y="640.0" type="curve" smooth="yes"/>
      <point x="1352.0" y="0.0" type="line"/>
    </contour>
    <contour>
      <point x="424.0" y="0.0" type="line"/>
      <point x="756.0" y="2004.0" type="line"/>
      <point x="472.0" y="2004.0" type="line"/>
      <point x="140.0" y="0.0" type="line"/>
    </contour>
  </outline>
</glyph>
<glyph name="slongstroke" format="2">
  <advance width="1008.0"/>
  <unicode hex="1E9C"/>
  <outline>
    <contour>
      <point x="864.0" y="1288.0" type="line"/>
      <point x="144.0" y="1032.0" type="line"/>
      <point x="104.0" y="796.0" type="line"/>
      <point x="824.0" y="1052.0" type="line"/>
    </contour>
    <contour>
      <point x="428.0" y="0.0" type="line"/>
      <point x="700.0" y="1640.0" type="line" smooth="yes"/>
      <point x="732.0" y="1820.0"/>
      <point x="900.0" y="1860.0"/>
      <point x="976.0" y="1860.0" type="curve" smooth="yes"/>
      <point x="1048.0" y="1860.0"/>
      <point x="1052.0" y="1856.0"/>
      <point x="1084.0" y="1852.0" type="curve"/>
      <point x="1116.0" y="2060.0" type="line"/>
      <point x="1096.0" y="2068.0"/>
      <point x="1052.0" y="2076.0"/>
      <point x="996.0" y="2076.0" type="curve" smooth="yes"/>
      <point x="744.0" y="2076.0"/>
      <point x="512.0" y="1920.0"/>
      <point x="464.0" y="1640.0" type="curve" smooth="yes"/>
      <point x="192.0" y="0.0" type="line"/>
    </contour>
  </outline>
</glyph>
<glyph name="uni1FEF" format="2">
  <advance width="752.0"/>
  <unicode hex="1FEF"/>
  <guideline x="600.0" y="1492.0" angle="260.6"/>
  <anchor x="628.0" y="1792.0" name="_top"/>
  <outline>
    <contour>
      <point x="732.0" y="1728.0" type="line"/>
      <point x="736.0" y="1752.0" type="line"/>
      <point x="652.0" y="2196.0" type="line"/>
      <point x="364.0" y="2196.0" type="line"/>
      <point x="360.0" y="2168.0" type="line"/>
      <point x="604.0" y="1728.0" type="line"/>
    </contour>
  </outline>
</glyph>
<glyph name="dagger" format="2">
  <advance width="1776.0"/>
  <unicode hex="2020"/>
  <outline>
    <contour>
      <point x="1228.0" y="2004.0" type="line"/>
      <point x="952.0" y="2004.0" type="line"/>
      <point x="620.0" y="0.0" type="line"/>
      <point x="896.0" y="0.0" type="line"/>
    </contour>
    <contour>
      <point x="1688.0" y="1488.0" type="line"/>
      <point x="328.0" y="1488.0" type="line"/>
      <point x="292.0" y="1268.0" type="line"/>
      <point x="1652.0" y="1268.0" type="line"/>
    </contour>
  </outline>
</glyph>
<glyph name="bullet" format="2">
  <advance width="1408.0"/>
  <unicode hex="2022"/>
  <outline>
    <contour>
      <point x="1148.0" y="832.0" type="curve" smooth="yes"/>
      <point x="1148.0" y="1076.0"/>
      <point x="952.0" y="1280.0"/>
      <point x="704.0" y="1280.0" type="curve" smooth="yes"/>
      <point x="464.0" y="1280.0"/>
      <point x="260.0" y="1076.0"/>
      <point x="260.0" y="832.0" type="curve" smooth="yes"/>
      <point x="260.0" y="588.0"/>
      <point x="464.0" y="388.0"/>
      <point x="704.0" y="388.0" type="curve" smooth="yes"/>
      <point x="952.0" y="388.0"/>
      <point x="1148.0" y="588.0"/>
    </contour>
  </outline>
</glyph>
<glyph name="pertenthousand" format="2">
  <advance width="3312.0"/>
  <unicode hex="2031"/>
  <outline>
    <contour>
      <point x="248.0" y="1512.0" type="line"/>
      <point x="212.0" y="1288.0"/>
      <point x="336.0" y="1100.0"/>
      <point x="596.0" y="1100.0" type="curve" smooth="yes"/>
      <point x="856.0" y="1100.0"/>
      <point x="1040.0" y="1288.0"/>
      <point x="1076.0" y="1512.0" type="curve" smooth="yes"/>
      <point x="1092.0" y="1616.0" type="line" smooth="yes"/>
      <point x="1132.0" y="1844.0"/>
      <point x="1008.0" y="2032.0"/>
      <point x="744.0" y="2032.0" type="curve" smooth="yes"/>
      <point x="488.0" y="2032.0"/>
      <point x="304.0" y="1844.0"/>
      <point x="264.0" y="1616.0" type="curve" smooth="yes"/>
    </contour>
    <contour>
      <point x="468.0" y="1616.0" type="line"/>
      <point x="488.0" y="1744.0"/>
      <point x="576.0" y="1860.0"/>
      <point x="716.0" y="1860.0" type="curve" smooth="yes"/>
      <point x="860.0" y="1860.0"/>
      <point x="908.0" y="1744.0"/>
      <point x="888.0" y="1616.0" type="curve" smooth="yes"/>
      <point x="872.0" y="1512.0" type="line" smooth="yes"/>
      <point x="852.0" y="1388.0"/>
      <point x="764.0" y="1272.0"/>
      <point x="624.0" y="1272.0" type="curve" smooth="yes"/>
      <point x="480.0" y="1272.0"/>
      <point x="432.0" y="1388.0"/>
      <point x="452.0" y="1512.0" type="curve" smooth="yes"/>
    </contour>
    <contour>
      <point x="1044.0" y="384.0" type="line"/>
      <point x="1008.0" y="160.0"/>
      <point x="1132.0" y="-28.0"/>
      <point x="1392.0" y="-28.0" type="curve" smooth="yes"/>
      <point x="1632.0" y="-28.0"/>
      <point x="1808.0" y="160.0"/>
      <point x="1844.0" y="384.0" type="curve" smooth="yes"/>
      <point x="1864.0" y="492.0" type="line" smooth="yes"/>
      <point x="1900.0" y="716.0"/>
      <point x="1788.0" y="904.0"/>
      <point x="1548.0" y="904.0" type="curve" smooth="yes"/>
      <point x="1288.0" y="904.0"/>
      <point x="1100.0" y="716.0"/>
      <point x="1064.0" y="492.0" type="curve" smooth="yes"/>
    </contour>
    <contour>
      <point x="1268.0" y="492.0" type="line"/>
      <point x="1288.0" y="616.0"/>
      <point x="1376.0" y="732.0"/>
      <point x="1520.0" y="732.0" type="curve" smooth="yes"/>
      <point x="1660.0" y="732.0"/>
      <point x="1712.0" y="616.0"/>
      <point x="1692.0" y="492.0" type="curve" smooth="yes"/>
      <point x="1672.0" y="384.0" type="line" smooth="yes"/>
      <point x="1652.0" y="260.0"/>
      <point x="1564.0" y="144.0"/>
      <point x="1420.0" y="144.0" type="curve" smooth="yes"/>
      <point x="1276.0" y="144.0"/>
      <point x="1228.0" y="260.0"/>
      <point x="1248.0" y="384.0" type="curve" smooth="yes"/>
    </contour>
    <contour>
      <point x="1700.0" y="384.0" type="line"/>
      <point x="1664.0" y="160.0"/>
      <point x="1776.0" y="-28.0"/>
      <point x="2020.0" y="-28.0" type="curve" smooth="yes"/>
      <point x="2276.0" y="-28.0"/>
      <point x="2436.0" y="160.0"/>
      <point x="2472.0" y="384.0" type="curve" smooth="yes"/>
      <point x="2492.0" y="492.0" type="line" smooth="yes"/>
      <point x="2528.0" y="716.0"/>
      <point x="2432.0" y="904.0"/>
      <point x="2172.0" y="904.0" type="curve" smooth="yes"/>
      <point x="1932.0" y="904.0"/>
      <point x="1756.0" y="716.0"/>
      <point x="1720.0" y="492.0" type="curve" smooth="yes"/>
    </contour>
    <contour>
      <point x="1896.0" y="492.0" type="line"/>
      <point x="1916.0" y="616.0"/>
      <point x="2004.0" y="732.0"/>
      <point x="2144.0" y="732.0" type="curve" smooth="yes"/>
      <point x="2288.0" y="732.0"/>
      <point x="2336.0" y="616.0"/>
      <point x="2316.0" y="492.0" type="curve" smooth="yes"/>
      <point x="2296.0" y="384.0" type="line" smooth="yes"/>
      <point x="2276.0" y="260.0"/>
      <point x="2188.0" y="144.0"/>
      <point x="2048.0" y="144.0" type="curve" smooth="yes"/>
      <point x="1904.0" y="144.0"/>
      <point x="1856.0" y="260.0"/>
      <point x="1876.0" y="384.0" type="curve" smooth="yes"/>
    </contour>
    <contour>
      <point x="2324.0" y="384.0" type="line"/>
      <point x="2288.0" y="160.0"/>
      <point x="2400.0" y="-28.0"/>
      <point x="2644.0" y="-28.0" type="curve" smooth="yes"/>
      <point x="2904.0" y="-28.0"/>
      <point x="3088.0" y="160.0"/>
      <point x="3124.0" y="384.0" type="curve" smooth="yes"/>
      <point x="3144.0" y="492.0" type="line" smooth="yes"/>
      <point x="3180.0" y="716.0"/>
      <point x="3060.0" y="904.0"/>
      <point x="2800.0" y="904.0" type="curve" smooth="yes"/>
      <point x="2556.0" y="904.0"/>
      <point x="2380.0" y="716.0"/>
      <point x="2344.0" y="492.0" type="curve" smooth="yes"/>
    </contour>
    <contour>
      <point x="2520.0" y="492.0" type="line"/>
      <point x="2540.0" y="616.0"/>
      <point x="2628.0" y="732.0"/>
      <point x="2772.0" y="732.0" type="curve" smooth="yes"/>
      <point x="2912.0" y="732.0"/>
      <point x="2960.0" y="616.0"/>
      <point x="2940.0" y="492.0" type="curve" smooth="yes"/>
      <point x="2920.0" y="384.0" type="line" smooth="yes"/>
      <point x="2900.0" y="260.0"/>
      <point x="2812.0" y="144.0"/>
      <point x="2672.0" y="144.0" type="curve" smooth="yes"/>
      <point x="2528.0" y="144.0"/>
      <point x="2480.0" y="260.0"/>
      <point x="2500.0" y="384.0" type="curve" smooth="yes"/>
    </contour>
    <contour>
      <point x="1832.0" y="1716.0" type="line"/>
      <point x="1696.0" y="1812.0" type="line"/>
      <point x="460.0" y="244.0" type="line"/>
      <point x="600.0" y="152.0" type="line"/>
    </contour>
  </outline>
</glyph>
<glyph name="uni2092" format="2">
  <advance width="1264.0"/>
  <unicode hex="2092"/>
  <outline>
    <contour>
      <point x="-32.0" y="-40.0" type="line"/>
      <point x="-88.0" y="-376.0"/>
      <point x="76.0" y="-600.0"/>
      <point x="388.0" y="-600.0" type="curve" smooth="yes"/>
      <point x="700.0" y="-600.0"/>
      <point x="944.0" y="-376.0"/>
      <point x="1000.0" y="-40.0" type="curve" smooth="yes"/>
      <point x="1000.0" y="-20.0" type="line" smooth="yes"/>
      <point x="1056.0" y="312.0"/>
      <point x="892.0" y="540.0"/>
      <point x="580.0" y="540.0" type="curve" smooth="yes"/>
      <point x="268.0" y="540.0"/>
      <point x="24.0" y="312.0"/>
      <point x="-32.0" y="-20.0" type="curve" smooth="yes"/>
    </contour>
    <contour>
      <point x="220.0" y="-20.0" type="line"/>
      <point x="256.0" y="192.0"/>
      <point x="368.0" y="328.0"/>
      <point x="544.0" y="328.0" type="curve" smooth="yes"/>
      <point x="716.0" y="328.0"/>
      <point x="784.0" y="192.0"/>
      <point x="748.0" y="-20.0" type="curve" smooth="yes"/>
      <point x="748.0" y="-40.0" type="line" smooth="yes"/>
      <point x="712.0" y="-256.0"/>
      <point x="596.0" y="-392.0"/>
      <point x="424.0" y="-392.0" type="curve" smooth="yes"/>
      <point x="248.0" y="-392.0"/>
      <point x="184.0" y="-256.0"/>
      <point x="220.0" y="-40.0" type="curve" smooth="yes"/>
    </contour>
  </outline>
</glyph>
<glyph name="uni214D" format="2">
  <advance width="2800.0"/>
  <unicode hex="214D"/>
  <outline>
    <contour>
      <point x="992.0" y="2152.0" type="line"/>
      <point x="1012.0" y="2300.0" type="line"/>
      <point x="884.0" y="2300.0" type="line"/>
      <point x="216.0" y="1100.0" type="line"/>
      <point x="440.0" y="1100.0" type="line"/>
    </contour>
    <contour>
      <point x="1120.0" y="1100.0" type="line"/>
      <point x="1344.0" y="1100.0" type="line"/>
      <point x="1072.0" y="2300.0" type="line"/>
      <point x="948.0" y="2300.0" type="line"/>
      <point x="916.0" y="2156.0" type="line"/>
    </contour>
    <contour>
      <point x="1204.0" y="1548.0" type="line"/>
      <point x="520.0" y="1548.0" type="line"/>
      <point x="492.0" y="1380.0" type="line"/>
      <point x="1176.0" y="1380.0" type="line"/>
    </contour>
    <contour>
      <point x="2364.0" y="300.0" type="curve" smooth="yes"/>
      <point x="2344.0" y="200.0"/>
      <point x="2256.0" y="144.0"/>
      <point x="2100.0" y="144.0" type="curve" smooth="yes"/>
      <point x="1952.0" y="144.0"/>
      <point x="1848.0" y="200.0"/>
      <point x="1852.0" y="372.0" type="curve"/>
      <point x="1656.0" y="372.0" type="line"/>
      <point x="1620.0" y="172.0"/>
      <point x="1748.0" y="-28.0"/>
      <point x="2072.0" y="-28.0" type="curve" smooth="yes"/>
      <point x="2368.0" y="-28.0"/>
      <point x="2536.0" y="124.0"/>
      <point x="2568.0" y="304.0" type="curve" smooth="yes"/>
      <point x="2600.0" y="504.0"/>
      <point x="2464.0" y="584.0"/>
      <point x="2176.0" y="688.0" type="curve" smooth="yes"/>
      <point x="2048.0" y="736.0"/>
      <point x="1952.0" y="792.0"/>
      <point x="1968.0" y="888.0" type="curve" smooth="yes"/>
      <point x="1984.0" y="976.0"/>
      <point x="2060.0" y="1036.0"/>
      <point x="2192.0" y="1036.0" type="curve" smooth="yes"/>
      <point x="2380.0" y="1036.0"/>
      <point x="2436.0" y="904.0"/>
      <point x="2428.0" y="828.0" type="curve"/>
      <point x="2624.0" y="828.0" type="line"/>
      <point x="2632.0" y="1020.0"/>
      <point x="2544.0" y="1204.0"/>
      <point x="2220.0" y="1204.0" type="curve" smooth="yes"/>
      <point x="1972.0" y="1204.0"/>
      <point x="1796.0" y="1060.0"/>
      <point x="1768.0" y="896.0" type="curve" smooth="yes"/>
      <point x="1736.0" y="704.0"/>
      <point x="1840.0" y="612.0"/>
      <point x="2108.0" y="512.0" type="curve" smooth="yes"/>
      <point x="2308.0" y="436.0"/>
      <point x="2376.0" y="388.0"/>
    </contour>
    <contour>
      <point x="2296.0" y="1716.0" type="line"/>
      <point x="2160.0" y="1812.0" type="line"/>
      <point x="924.0" y="244.0" type="line"/>
      <point x="1064.0" y="152.0" type="line"/>
    </contour>
  </outline>
</glyph>
<glyph name="diamondblack_x" format="2">
  <advance width="2960.0"/>
  <unicode hex="2756"/>
  <outline>
    <contour>
      <point x="2128.0" y="1520.0" type="line"/>
      <point x="1588.0" y="2112.0" type="line"/>
      <point x="952.0" y="1520.0" type="line"/>
      <point x="1500.0" y="936.0" type="line"/>
    </contour>
    <contour>
      <point x="2824.0" y="768.0" type="line"/>
      <point x="2284.0" y="1352.0" type="line"/>
      <point x="1656.0" y="768.0" type="line"/>
      <point x="2196.0" y="176.0" type="line"/>
    </contour>
    <contour>
      <point x="1320.0" y="768.0" type="line"/>
      <point x="772.0" y="1352.0" type="line"/>
      <point x="136.0" y="768.0" type="line"/>
      <point x="684.0" y="176.0" type="line"/>
    </contour>
    <contour>
      <point x="2016.0" y="8.0" type="line"/>
      <point x="1476.0" y="600.0" type="line"/>
      <point x="840.0" y="8.0" type="line"/>
      <point x="1388.0" y="-576.0" type="line"/>
    </contour>
  </outline>
</glyph>
<glyph name="diamondwhite_x" format="2">
  <advance width="2960.0"/>
  <unicode hex="E000"/>
  <outline>
    <contour>
      <point x="2128.0" y="1520.0" type="line"/>
      <point x="1588.0" y="2112.0" type="line"/>
      <point x="952.0" y="1520.0" type="line"/>
      <point x="1500.0" y="936.0" type="line"/>
    </contour>
    <contour>
      <point x="1192.0" y="1520.0" type="line"/>
      <point x="1568.0" y="1872.0" type="line"/>
      <point x="1888.0" y="1520.0" type="line"/>
      <point x="1516.0" y="1176.0" type="line"/>
    </contour>
    <contour>
      <point x="2824.0" y="768.0" type="line"/>
      <point x="2284.0" y="1352.0" type="line"/>
      <point x="1656.0" y="768.0" type="line"/>
      <point x="2196.0" y="176.0" type="line"/>
    </contour>
    <contour>
      <point x="1320.0" y="768.0" type="line"/>
      <point x="772.0" y="1352.0" type="line"/>
      <point x="136.0" y="768.0" type="line"/>
      <point x="684.0" y="176.0" type="line"/>
    </contour>
    <contour>
      <point x="1888.0" y="768.0" type="line"/>
      <point x="2264.0" y="1120.0" type="line"/>
      <point x="2592.0" y="768.0" type="line"/>
      <point x="2216.0" y="416.0" type="line"/>
    </contour>
    <contour>
      <point x="376.0" y="768.0" type="line"/>
      <point x="752.0" y="1120.0" type="line"/>
      <point x="1080.0" y="768.0" type="line"/>
      <point x="704.0" y="416.0" type="line"/>
    </contour>
    <contour>
      <point x="2016.0" y="8.0" type="line"/>
      <point x="1476.0" y="600.0" type="line"/>
      <point x="840.0" y="8.0" type="line"/>
      <point x="1388.0" y="-576.0" type="line"/>
    </contour>
    <contour>
      <point x="1080.0" y="8.0" type="line"/>
      <point x="1460.0" y="360.0" type="line"/>
      <point x="1776.0" y="8.0" type="line"/>
      <point x="1408.0" y="-336.0" type="line"/>
    </contour>
  </outline>
</glyph>
<glyph name="asterisk.case" format="2">
  <advance width="1552.0"/>
  <note>
Recipe:
1. make horizontal rect
2. copy rect and paste
3. rotate by 60 deg
4. enter transform mode and center it
5. copy the rotated piece and paste
6. flip on vertical axis
7. enter transform mode and center it
</note>
  <guideline x="1200.0" y="1024.0" angle="0.0"/>
  <guideline x="1468.0" y="1448.0" angle="0.0"/>
  <guideline x="980.0" y="460.0" angle="0.0"/>
  <guideline x="732.0" y="352.0" angle="0.0"/>
  <guideline x="1236.0" y="1708.0" angle="90.0"/>
  <outline>
    <contour>
      <point x="496.0" y="428.0" type="line"/>
      <point x="776.0" y="820.0" type="line"/>
      <point x="792.0" y="820.0" type="line"/>
      <point x="944.0" y="428.0" type="line"/>
      <point x="1140.0" y="532.0" type="line"/>
      <point x="968.0" y="916.0" type="line"/>
      <point x="980.0" y="932.0" type="line"/>
      <point x="1428.0" y="920.0" type="line"/>
      <point x="1464.0" y="1128.0" type="line"/>
      <point x="1016.0" y="1116.0" type="line"/>
      <point x="1012.0" y="1132.0" type="line"/>
      <point x="1308.0" y="1516.0" type="line"/>
      <point x="1140.0" y="1620.0" type="line"/>
      <point x="860.0" y="1224.0" type="line"/>
      <point x="844.0" y="1224.0" type="line"/>
      <point x="692.0" y="1620.0" type="line"/>
      <point x="492.0" y="1516.0" type="line"/>
      <point x="664.0" y="1132.0" type="line"/>
      <point x="652.0" y="1116.0" type="line"/>
      <point x="208.0" y="1128.0" type="line"/>
      <point x="172.0" y="920.0" type="line"/>
      <point x="628.0" y="932.0" type="line"/>
      <point x="632.0" y="916.0" type="line"/>
      <point x="332.0" y="532.0" type="line"/>
    </contour>
  </outline>
</glyph>
<glyph name="eight.sup" format="2">
  <advance width="1264.0"/>
  <outline>
    <contour>
      <point x="964.0" y="300.0" type="curve" smooth="yes"/>
      <point x="992.0" y="484.0"/>
      <point x="840.0" y="600.0"/>
      <point x="604.0" y="600.0" type="curve" smooth="yes"/>
      <point x="368.0" y="600.0"/>
      <point x="176.0" y="484.0"/>
      <point x="148.0" y="300.0" type="curve" smooth="yes"/>
      <point x="112.0" y="92.0"/>
      <point x="272.0" y="-16.0"/>
      <point x="504.0" y="-16.0" type="curve" smooth="yes"/>
      <point x="736.0" y="-16.0"/>
      <point x="928.0" y="92.0"/>
    </contour>
    <contour>
      <point x="736.0" y="316.0" type="curve" smooth="yes"/>
      <point x="724.0" y="228.0"/>
      <point x="640.0" y="172.0"/>
      <point x="532.0" y="172.0" type="curve" smooth="yes"/>
      <point x="424.0" y="172.0"/>
      <point x="368.0" y="228.0"/>
      <point x="380.0" y="316.0" type="curve" smooth="yes"/>
      <point x="396.0" y="408.0"/>
      <point x="472.0" y="460.0"/>
      <point x="580.0" y="460.0" type="curve" smooth="yes"/>
      <point x="684.0" y="460.0"/>
      <point x="752.0" y="408.0"/>
    </contour>
    <contour>
      <point x="1020.0" y="796.0" type="curve" smooth="yes"/>
      <point x="1052.0" y="992.0"/>
      <point x="912.0" y="1100.0"/>
      <point x="688.0" y="1100.0" type="curve" smooth="yes"/>
      <point x="464.0" y="1100.0"/>
      <point x="284.0" y="992.0"/>
      <point x="252.0" y="796.0" type="curve" smooth="yes"/>
      <point x="224.0" y="628.0"/>
      <point x="364.0" y="512.0"/>
      <point x="588.0" y="512.0" type="curve" smooth="yes"/>
      <point x="812.0" y="512.0"/>
      <point x="992.0" y="628.0"/>
    </contour>
    <contour>
      <point x="788.0" y="784.0" type="curve" smooth="yes"/>
      <point x="772.0" y="704.0"/>
      <point x="708.0" y="648.0"/>
      <point x="612.0" y="648.0" type="curve" smooth="yes"/>
      <point x="520.0" y="648.0"/>
      <point x="468.0" y="704.0"/>
      <point x="484.0" y="784.0" type="curve" smooth="yes"/>
      <point x="496.0" y="864.0"/>
      <point x="564.0" y="916.0"/>
      <point x="656.0" y="916.0" type="curve" smooth="yes"/>
      <point x="752.0" y="916.0"/>
      <point x="800.0" y="864.0"/>
    </contour>
  </outline>
</glyph>
<glyph name="five.sup" format="2">
  <advance width="1264.0"/>
  <outline>
    <contour>
      <point x="392.0" y="484.0" type="line"/>
      <point x="432.0" y="512.0"/>
      <point x="480.0" y="544.0"/>
      <point x="576.0" y="544.0" type="curve"/>
      <point x="704.0" y="544.0"/>
      <point x="760.0" y="468.0"/>
      <point x="740.0" y="360.0" type="curve" smooth="yes"/>
      <point x="724.0" y="252.0"/>
      <point x="660.0" y="172.0"/>
      <point x="532.0" y="172.0" type="curve" smooth="yes"/>
      <point x="432.0" y="172.0"/>
      <point x="368.0" y="208.0"/>
      <point x="376.0" y="300.0" type="curve"/>
      <point x="148.0" y="300.0" type="line"/>
      <point x="120.0" y="100.0"/>
      <point x="296.0" y="-16.0"/>
      <point x="504.0" y="-16.0" type="curve" smooth="yes"/>
      <point x="784.0" y="-16.0"/>
      <point x="940.0" y="160.0"/>
      <point x="972.0" y="356.0" type="curve" smooth="yes"/>
      <point x="1008.0" y="580.0"/>
      <point x="896.0" y="712.0"/>
      <point x="660.0" y="712.0" type="curve" smooth="yes"/>
      <point x="580.0" y="712.0"/>
      <point x="504.0" y="688.0"/>
      <point x="468.0" y="676.0" type="curve"/>
      <point x="532.0" y="896.0" type="line"/>
      <point x="1004.0" y="896.0" type="line"/>
      <point x="1036.0" y="1084.0" type="line"/>
      <point x="372.0" y="1084.0" type="line"/>
      <point x="212.0" y="532.0" type="line"/>
    </contour>
  </outline>
</glyph>
<glyph name="macronacutecomb.lc" format="2">
  <anchor x="-804.0" y="1764.0" name="_top"/>
  <anchor x="-812.0" y="2668.0" name="mkmktop_acc"/>
  <outline>
    <contour>
      <point x="-332.0" y="1988.0" type="line"/>
      <point x="-1272.0" y="1988.0" type="line"/>
      <point x="-1272.0" y="1784.0" type="line"/>
      <point x="-332.0" y="1784.0" type="line"/>
    </contour>
    <component base="acute" xOffset="-1100.0" yOffset="400.0"/>
  </outline>
</glyph>
<glyph name="one.sup" format="2">
  <advance width="1008.0"/>
  <outline>
    <contour>
      <point x="816.0" y="1084.0" type="line"/>
      <point x="792.0" y="1084.0" type="line"/>
      <point x="268.0" y="924.0" type="line"/>
      <point x="240.0" y="736.0" type="line"/>
      <point x="544.0" y="812.0" type="line"/>
      <point x="408.0" y="0.0" type="line"/>
      <point x="636.0" y="0.0" type="line"/>
    </contour>
  </outline>
</glyph>
<glyph name="period.tf" format="2">
  <advance width="776.0"/>
  <outline>
    <contour>
      <point x="388.0" y="-16.0" type="curve" smooth="yes"/>
      <point x="488.0" y="-16.0"/>
      <point x="568.0" y="64.0"/>
      <point x="568.0" y="164.0" type="curve" smooth="yes"/>
      <point x="568.0" y="260.0"/>
      <point x="488.0" y="340.0"/>
      <point x="388.0" y="340.0" type="curve" smooth="yes"/>
      <point x="292.0" y="340.0"/>
      <point x="208.0" y="264.0"/>
      <point x="208.0" y="164.0" type="curve" smooth="yes"/>
      <point x="208.0" y="64.0"/>
      <point x="288.0" y="-16.0"/>
    </contour>
  </outline>
</glyph>
<glyph name="zero.sup" format="2">
  <advance width="1264.0"/>
  <outline>
    <contour>
      <point x="1020.0" y="640.0" type="line"/>
      <point x="1072.0" y="952.0"/>
      <point x="932.0" y="1100.0"/>
      <point x="688.0" y="1100.0" type="curve" smooth="yes"/>
      <point x="444.0" y="1100.0"/>
      <point x="256.0" y="952.0"/>
      <point x="204.0" y="640.0" type="curve"/>
      <point x="172.0" y="448.0" type="line"/>
      <point x="120.0" y="132.0"/>
      <point x="260.0" y="-16.0"/>
      <point x="508.0" y="-16.0" type="curve" smooth="yes"/>
      <point x="748.0" y="-16.0"/>
      <point x="936.0" y="132.0"/>
      <point x="988.0" y="448.0" type="curve"/>
    </contour>
    <contour>
      <point x="752.0" y="428.0" type="line"/>
      <point x="720.0" y="248.0"/>
      <point x="644.0" y="172.0"/>
      <point x="536.0" y="172.0" type="curve" smooth="yes"/>
      <point x="420.0" y="172.0"/>
      <point x="368.0" y="248.0"/>
      <point x="400.0" y="428.0" type="curve" smooth="yes"/>
      <point x="440.0" y="660.0" type="line" smooth="yes"/>
      <point x="468.0" y="836.0"/>
      <point x="544.0" y="912.0"/>
      <point x="656.0" y="912.0" type="curve" smooth="yes"/>
      <point x="768.0" y="912.0"/>
      <point x="820.0" y="836.0"/>
      <point x="792.0" y="660.0" type="curve"/>
    </contour>
  </outline>
</glyph>
